<svg xmlns="http://www.w3.org/2000/svg" xmlns:xlink="http://www.w3.org/1999/xlink" width="44" height="30" viewBox="0 0 44 30"><defs><clipPath id="a"><rect width="44" height="30" rx="5" transform="translate(1018 357)" fill="#fff"/></clipPath></defs><g transform="translate(-1009 -539)"><g transform="translate(-9 182)" clip-path="url(#a)"><rect width="44" height="30" rx="5" transform="translate(1018 357)" fill="#f5f5f5"/></g><g transform="translate(1017.887 520.535)"><path d="M25.035,38.77H1.192A1.2,1.2,0,0,1,0,37.578V24.464a1.2,1.2,0,0,1,1.192-1.192H25.035a1.2,1.2,0,0,1,1.192,1.192V37.578A1.2,1.2,0,0,1,25.035,38.77Z" fill="#0e9347"/><path d="M255,232.727a3.989,3.989,0,0,0-3.338,1.729,4.446,4.446,0,0,0-2.027-.536,4.171,4.171,0,0,0-4.113,3.576h12.458a1.212,1.212,0,0,0,1.192-1.013A4.246,4.246,0,0,0,255,232.727Z" transform="translate(-232.95 -198.726)" fill="#0d8944"/><path d="M44.731,59.659H25.657a2.391,2.391,0,0,0-2.384-2.384V48.93a2.391,2.391,0,0,0,2.384-2.384H44.731a2.391,2.391,0,0,0,2.384,2.384v8.345A2.391,2.391,0,0,0,44.731,59.659Z" transform="translate(-22.081 -22.082)" fill="#3bb54a"/><g transform="translate(4.769 25.656)"><path d="M261.629,232.727a3.989,3.989,0,0,0-3.338,1.729,4.446,4.446,0,0,0-2.027-.536,4.1,4.1,0,0,0-3.755,2.384h9.716a2.379,2.379,0,0,1,2.325-2.384A4.309,4.309,0,0,0,261.629,232.727Z" transform="translate(-244.343 -224.382)" fill="#0e9347"/><ellipse cx="4.769" cy="5.365" rx="4.769" ry="5.365" transform="translate(3.576 0)" fill="#0e9347"/><circle cx="1.192" cy="1.192" r="1.192" transform="translate(0 4.172)" fill="#0e9347"/><circle cx="1.192" cy="1.192" r="1.192" transform="translate(14.306 4.172)" fill="#0e9347"/></g><path d="M212.435,107.709h-1.192a.6.6,0,0,1,0-1.192h1.788a.6.6,0,1,0,0-1.192h-.6a.6.6,0,0,0-1.192,0,1.788,1.788,0,1,0,0,3.576h1.192a.6.6,0,1,1,0,1.192h-1.788a.6.6,0,1,0,0,1.192h.6a.6.6,0,1,0,1.192,0,1.788,1.788,0,1,0,0-3.576Z" transform="translate(-198.726 -77.284)" fill="#89c763"/><circle cx="4.172" cy="4.172" r="4.172" transform="translate(11.325 35.193)" fill="#ffca5d"/><circle cx="4.172" cy="4.172" r="4.172" transform="translate(16.69 34.001)" fill="#f6b545"/><path d="M329.99,232.727a4.173,4.173,0,1,0,4.173,4.173A4.147,4.147,0,0,0,329.99,232.727Zm0,7.153a2.98,2.98,0,1,1,2.98-2.98A2.951,2.951,0,0,1,329.99,239.88Z" transform="translate(-309.128 -198.726)" fill="#ffcb5b"/><path d="M407.273,318.295h0a4.1,4.1,0,0,0,4.173-4.113h-.06a.634.634,0,0,0-.6.536,3.6,3.6,0,0,1-1.133,2.146,3.377,3.377,0,0,1-1.848.894A.534.534,0,0,0,407.273,318.295Z" transform="translate(-386.411 -276.008)" fill="#f6b545"/><path d="M329.99,233.866h0a4.1,4.1,0,0,0-4.172,4.113h.06a.634.634,0,0,0,.6-.536,3.6,3.6,0,0,1,1.133-2.146,3.378,3.378,0,0,1,1.848-.894A.534.534,0,0,0,329.99,233.866Z" transform="translate(-309.128 -199.805)" fill="#ffe27a"/><path d="M349.508,259.4a2.951,2.951,0,0,1,2.98-2.98,2.812,2.812,0,0,1,1.907.715,2.971,2.971,0,0,0-5.3,1.848,2.858,2.858,0,0,0,1.073,2.265A2.8,2.8,0,0,1,349.508,259.4Z" transform="translate(-331.209 -220.807)" fill="#f19920"/><path d="M437.214,310.51a.219.219,0,0,1-.179-.06.288.288,0,0,1,0-.417,1.989,1.989,0,0,0,.536-1.371.3.3,0,0,1,.6,0,2.752,2.752,0,0,1-.656,1.788A.648.648,0,0,1,437.214,310.51Z" transform="translate(-414.563 -270.488)" fill="#ffcb5b"/><g transform="translate(16.749 35.193)"><path d="M396.233,282.85a.563.563,0,0,1-.6-.6V279.87a.6.6,0,1,1,1.192,0v2.384A.563.563,0,0,1,396.233,282.85Z" transform="translate(-392.12 -278.082)" fill="#f19920"/><path d="M333.3,262.5a4.843,4.843,0,0,0-2.861-3.219A4.983,4.983,0,0,0,328.173,256a4.309,4.309,0,0,0-1.192,2.921,4.147,4.147,0,0,0,4.172,4.173A3.457,3.457,0,0,0,333.3,262.5Z" transform="translate(-326.981 -256)" fill="#f19920"/></g><g transform="translate(17.882 35.968)"><path d="M350.163,275.6a3.136,3.136,0,0,1-.715-1.907,2.886,2.886,0,0,1,.954-2.146,2.593,2.593,0,0,0-.358-.417,2.92,2.92,0,0,0-.954,2.205A2.858,2.858,0,0,0,350.163,275.6Z" transform="translate(-349.09 -271.128)" fill="#e78825"/><path d="M395.636,321.164V322a.6.6,0,0,0,1.192,0v-.119A4.871,4.871,0,0,0,395.636,321.164Z" transform="translate(-393.252 -318.601)" fill="#e78825"/></g><path d="M332.2,263.6a3.81,3.81,0,0,0-.477-1.133,2.884,2.884,0,0,1-1.729.6,2.951,2.951,0,0,1-2.98-2.98,2.92,2.92,0,0,1,.954-2.205,3.637,3.637,0,0,0-.954-.715,4.309,4.309,0,0,0-1.192,2.921,4.147,4.147,0,0,0,4.172,4.173A4,4,0,0,0,332.2,263.6Z" transform="translate(-309.128 -221.909)" fill="#f6b545"/><path d="M409.3,372.364a4.121,4.121,0,0,1-1.49.6.634.634,0,0,0-.536.6h0a4,4,0,0,0,2.205-.656Z" transform="translate(-386.41 -331.21)" fill="#f19920"/><path d="M327.01,257.164a4.309,4.309,0,0,0-1.192,2.921h.06a.634.634,0,0,0,.6-.536,3.709,3.709,0,0,1,1.073-2.086A2.418,2.418,0,0,1,327.01,257.164Z" transform="translate(-309.128 -221.911)" fill="#ffcb5b"/><circle cx="4.172" cy="4.172" r="4.172" transform="translate(11.325 35.193)" fill="#f6b545"/><path d="M290.909,318.353a4.131,4.131,0,0,0,.179,1.192h.417a4.158,4.158,0,0,0,3.994-5.365h-.417A4.147,4.147,0,0,0,290.909,318.353Z" transform="translate(-276.007 -276.007)" fill="#f19920"/><path d="M225.262,256a4.173,4.173,0,1,0,4.173,4.173A4.147,4.147,0,0,0,225.262,256Zm0,7.153a2.98,2.98,0,1,1,2.98-2.98A2.951,2.951,0,0,1,225.262,263.153Z" transform="translate(-209.765 -220.807)" fill="#ffcb5b"/><path d="M302.545,341.568h0a4.1,4.1,0,0,0,4.172-4.113h-.06a.634.634,0,0,0-.6.536,3.6,3.6,0,0,1-1.133,2.146,3.377,3.377,0,0,1-1.848.894A.534.534,0,0,0,302.545,341.568Z" transform="translate(-287.047 -298.089)" fill="#f6b545"/><path d="M225.262,257.139h0a4.1,4.1,0,0,0-4.173,4.113h.06a.634.634,0,0,0,.6-.536,3.6,3.6,0,0,1,1.133-2.146,3.377,3.377,0,0,1,1.848-.894A.534.534,0,0,0,225.262,257.139Z" transform="translate(-209.765 -221.886)" fill="#ffe27a"/><path d="M244.78,282.671a2.951,2.951,0,0,1,2.98-2.98,2.811,2.811,0,0,1,1.907.715,2.971,2.971,0,0,0-5.3,1.848,2.858,2.858,0,0,0,1.073,2.265A2.8,2.8,0,0,1,244.78,282.671Z" transform="translate(-231.846 -242.887)" fill="#f19920"/><path d="M332.487,333.782a.219.219,0,0,1-.179-.06.288.288,0,0,1,0-.417,1.989,1.989,0,0,0,.536-1.371.3.3,0,1,1,.6,0,2.752,2.752,0,0,1-.656,1.788A.648.648,0,0,1,332.487,333.782Z" transform="translate(-315.201 -292.568)" fill="#ffcb5b"/><path d="M291.505,306.123a.563.563,0,0,1-.6-.6v-2.384a.6.6,0,1,1,1.192,0v2.384A.563.563,0,0,1,291.505,306.123Z" transform="translate(-276.007 -264.969)" fill="#f19920"/><g transform="translate(14.306 38.174)"><path d="M294.248,314.241a3.485,3.485,0,0,1,.238,1.133,2.951,2.951,0,0,1-2.98,2.98,2.027,2.027,0,0,1-.6-.06v.06a4.13,4.13,0,0,0,.179,1.192h.417a4.158,4.158,0,0,0,3.994-5.365h-.417A3.942,3.942,0,0,0,294.248,314.241Z" transform="translate(-290.314 -314.181)" fill="#f6b545"/><circle cx="4.172" cy="4.172" r="4.172" transform="translate(0 0.596)" fill="#f6b545"/></g><path d="M283.444,325.818a4.173,4.173,0,1,0,4.173,4.172A4.147,4.147,0,0,0,283.444,325.818Zm0,7.153a2.98,2.98,0,1,1,2.98-2.98A2.951,2.951,0,0,1,283.444,332.971Z" transform="translate(-264.966 -287.048)" fill="#ffcb5b"/><path d="M360.727,411.386h0a4.1,4.1,0,0,0,4.173-4.113h-.06a.634.634,0,0,0-.6.536,3.6,3.6,0,0,1-1.133,2.146,3.378,3.378,0,0,1-1.848.894A.534.534,0,0,0,360.727,411.386Z" transform="translate(-342.249 -364.331)" fill="#f6b545"/><path d="M283.444,326.957h0a4.1,4.1,0,0,0-4.172,4.113h.06a.634.634,0,0,0,.6-.536,3.6,3.6,0,0,1,1.133-2.146,3.377,3.377,0,0,1,1.848-.894A.534.534,0,0,0,283.444,326.957Z" transform="translate(-264.966 -288.127)" fill="#ffe27a"/><path d="M302.962,352.489a2.951,2.951,0,0,1,2.98-2.98,2.812,2.812,0,0,1,1.907.715,2.971,2.971,0,0,0-5.305,1.848,2.858,2.858,0,0,0,1.073,2.265A2.8,2.8,0,0,1,302.962,352.489Z" transform="translate(-287.047 -309.129)" fill="#f19920"/><path d="M390.668,403.6a.219.219,0,0,1-.179-.06.288.288,0,0,1,0-.417,1.989,1.989,0,0,0,.536-1.371.3.3,0,0,1,.6,0,2.753,2.753,0,0,1-.656,1.788A.648.648,0,0,1,390.668,403.6Z" transform="translate(-370.402 -358.81)" fill="#ffcb5b"/><path d="M349.687,375.94a.563.563,0,0,1-.6-.6V372.96a.6.6,0,0,1,1.192,0v2.384A.563.563,0,0,1,349.687,375.94Z" transform="translate(-331.209 -331.21)" fill="#f19920"/></g></g></svg>