<svg xmlns="http://www.w3.org/2000/svg" width="27.526" height="27.527" viewBox="0 0 27.526 27.527">
  <path id="close" d="M18.305,13.764l8.516-8.516a2.407,2.407,0,0,0,0-3.406L25.686.707a2.407,2.407,0,0,0-3.406,0L13.764,9.223,5.248.706a2.407,2.407,0,0,0-3.406,0L.706,1.841a2.408,2.408,0,0,0,0,3.406l8.517,8.517L.707,22.28a2.407,2.407,0,0,0,0,3.406l1.135,1.135a2.407,2.407,0,0,0,3.406,0l8.516-8.516,8.515,8.516a2.408,2.408,0,0,0,3.406,0l1.135-1.135a2.408,2.408,0,0,0,0-3.406Zm0,0" fill="#EF6079"/>
</svg>
