<svg xmlns="http://www.w3.org/2000/svg" 
  width="27.526" 
  height="27.527" 
  viewBox="0 0 19.144 17.216"  
>
<path id="commentary" d="M18.855,16.017A13.618,13.618,0,0,1,15.9,13.684,8.608,8.608,0,0,0,2.521,3.021,8.609,8.609,0,0,0,12.786,16.635c2.51,1.4,5.806.459,5.95.417a.565.565,0,0,0,.119-1.035ZM12.44,12.186H4.776a.565.565,0,1,1,0-1.13H12.44a.565.565,0,1,1,0,1.13Zm0-2.512H4.776a.565.565,0,0,1,0-1.131H12.44a.565.565,0,0,1,0,1.131Zm0-2.513H4.776a.565.565,0,1,1,0-1.13H12.44a.565.565,0,1,1,0,1.13Zm0,0" transform="translate(0 -0.5)"/>
</svg>
