<svg id="Group_10865" data-name="Group 10865" xmlns="http://www.w3.org/2000/svg" width="62" height="62" viewBox="0 0 62 62">
  <path id="Path_26796" data-name="Path 26796" d="M0,0H62V62H0Z" fill="none"/>
  <path id="Path_26797" data-name="Path 26797" d="M51.041,33.941v7.735h7.743v5.157H51.041v7.735H45.879V46.834H38.136V41.677h7.743V33.941ZM51.062,3a2.561,2.561,0,0,1,2.56,2.56V29.666a15.475,15.475,0,0,0-5.162-.882V8.157H7.162l0,36.1L31.149,20.294a2.58,2.58,0,0,1,3.407-.217l.24.219,9.153,9.153A15.475,15.475,0,0,0,33.856,49.415l-29.3,0A2.562,2.562,0,0,1,2,46.852V5.56A2.58,2.58,0,0,1,4.56,3h46.5ZM17.487,13.314a5.157,5.157,0,1,1-5.162,5.157A5.16,5.16,0,0,1,17.487,13.314Z" transform="translate(3.215 4.823)" fill="#f3f3f3"/>
</svg>
