<svg id="language" xmlns="http://www.w3.org/2000/svg" width="18.193" height="18.193" viewBox="0 0 18.193 18.193">
  <g id="Group_11382" data-name="Group 11382" transform="translate(4.274 4.868)">
    <g id="Group_11381" data-name="Group 11381">
      <path id="Path_27492" data-name="Path 27492" d="M120.947,137h-.228l-.426,2.132h1.081Z" transform="translate(-120.293 -137)" fill="#2d3291"/>
    </g>
  </g>
  <g id="Group_11384" data-name="Group 11384" transform="translate(13.551 9.132)">
    <g id="Group_11383" data-name="Group 11383">
      <path id="Path_27493" data-name="Path 27493" d="M381.374,257a5.569,5.569,0,0,0,.875,1.544,5.624,5.624,0,0,0,.911-1.544Z" transform="translate(-381.374 -257)" fill="#2d3291"/>
    </g>
  </g>
  <g id="Group_11386" data-name="Group 11386" transform="translate(8.622 3.233)">
    <g id="Group_11385" data-name="Group 11385">
      <path id="Path_27494" data-name="Path 27494" d="M250.634,91h-6.619l1.38,11.075a1.655,1.655,0,0,1-.4,1.213l-2.337,2.671h7.971a1.6,1.6,0,0,0,1.6-1.6V92.634A1.632,1.632,0,0,0,250.634,91Zm0,5.9h-.142a6.763,6.763,0,0,1-1.284,2.335c.392.358.81.652,1.226.98a.533.533,0,1,1-.666.832c-.452-.357-.877-.656-1.3-1.045-.425.39-.814.688-1.266,1.045a.533.533,0,0,1-.666-.832c.416-.329.8-.623,1.191-.98a6.728,6.728,0,0,1-1.248-2.335h-.142a.533.533,0,0,1,0-1.066h1.6V95.3a.533.533,0,1,1,1.066,0v.533h1.635a.533.533,0,1,1,0,1.066Z" transform="translate(-242.663 -91)" fill="#2d3291"/>
    </g>
  </g>
  <g id="Group_11388" data-name="Group 11388" transform="translate(0)">
    <g id="Group_11387" data-name="Group 11387">
      <path id="Path_27495" data-name="Path 27495" d="M8.676,1.4A1.6,1.6,0,0,0,7.089,0H1.6A1.6,1.6,0,0,0,0,1.6V13.4a1.6,1.6,0,0,0,1.6,1.6H10c.155-.178.286-.289.291-.521C10.3,14.415,8.683,1.458,8.676,1.4Zm-2.14,8.787a.533.533,0,0,1-.627-.418l-.341-1.7H4.061l-.341,1.7A.533.533,0,0,1,2.675,9.56L3.741,4.23A.533.533,0,0,1,4.264,3.8h1.1a.533.533,0,0,1,.523.428L6.954,9.56A.533.533,0,0,1,6.536,10.187Z" transform="translate(0)" fill="#2d3291"/>
    </g>
  </g>
  <g id="Group_11390" data-name="Group 11390" transform="translate(6.227 16.061)">
    <g id="Group_11389" data-name="Group 11389">
      <path id="Path_27496" data-name="Path 27496" d="M175.261,452l.091.731a1.612,1.612,0,0,0,.922,1.239l1.789-1.97Z" transform="translate(-175.261 -452)" fill="#2d3291"/>
    </g>
  </g>
</svg>
