<svg xmlns="http://www.w3.org/2000/svg" width="70.157" height="70.157" viewBox="0 0 70.157 70.157">
  <g id="Group_11576" data-name="Group 11576" transform="translate(-591 -419)">
    <path id="Path_27899" data-name="Path 27899" d="M211.079,206.157A35.079,35.079,0,1,0,176,171.079,35.079,35.079,0,0,0,211.079,206.157Zm0-63.141a28.063,28.063,0,1,1-28.063,28.063A28.063,28.063,0,0,1,211.079,143.016Z" transform="translate(415 283)" fill="#16a9e3"/>
    <path id="Path_27900" data-name="Path 27900" d="M224.043,211.035a3.508,3.508,0,0,0,4.961,0l21.047-21.047a3.508,3.508,0,0,0-4.961-4.961l-18.567,18.567-4.535-4.535a3.508,3.508,0,0,0-4.961,4.961Z" transform="translate(392.539 256.047)" fill="#16a9e3"/>
  </g>
</svg>
