<svg xmlns="http://www.w3.org/2000/svg" width="63.61" height="66.638" viewBox="0 0 63.61 66.638">
  <g id="Group_11575" data-name="Group 11575" transform="translate(-774.193 -76.914)">
    <path id="Path_26801" data-name="Path 26801" d="M822.171,94.895h0a2.38,2.38,0,0,1-2.38-2.38V79.295a2.38,2.38,0,0,1,2.38-2.381h0a2.38,2.38,0,0,1,2.38,2.381v13.22A2.38,2.38,0,0,1,822.171,94.895Z" transform="translate(-16.173)" fill="#26aae1" opacity="0.911"/>
    <path id="Path_26802" data-name="Path 26802" d="M836.911,101.071h0a2.38,2.38,0,0,1-.527-3.324l7.77-10.7a2.381,2.381,0,0,1,3.325-.527h0a2.38,2.38,0,0,1,.527,3.325l-7.77,10.7A2.38,2.38,0,0,1,836.911,101.071Z" transform="translate(-21.896 -3.248)" fill="#26aae1" opacity="0.927"/>
    <path id="Path_26803" data-name="Path 26803" d="M846.02,117.243h0a2.381,2.381,0,0,1,1.528-3l12.573-4.085a2.379,2.379,0,0,1,3,1.528h0a2.379,2.379,0,0,1-1.528,3l-12.573,4.086A2.381,2.381,0,0,1,846.02,117.243Z" transform="translate(-25.434 -11.75)" fill="#26aae1" opacity="0.2"/>
    <path id="Path_26804" data-name="Path 26804" d="M846.02,134.987h0a2.38,2.38,0,0,1,3-1.528l12.573,4.085a2.38,2.38,0,0,1,1.528,3h0a2.38,2.38,0,0,1-3,1.528l-12.573-4.086A2.38,2.38,0,0,1,846.02,134.987Z" transform="translate(-25.434 -20.014)" fill="#26aae1" opacity="0.289"/>
    <path id="Path_26805" data-name="Path 26805" d="M836.911,147.525h0a2.38,2.38,0,0,1,3.325.527l7.77,10.695a2.38,2.38,0,0,1-.527,3.325h0a2.38,2.38,0,0,1-3.325-.527l-7.77-10.695A2.38,2.38,0,0,1,836.911,147.525Z" transform="translate(-21.896 -24.883)" fill="#26aae1" opacity="0.378"/>
    <path id="Path_26806" data-name="Path 26806" d="M822.171,152.314h0a2.38,2.38,0,0,1,2.38,2.381v13.22a2.38,2.38,0,0,1-2.38,2.38h0a2.38,2.38,0,0,1-2.38-2.38v-13.22A2.38,2.38,0,0,1,822.171,152.314Z" transform="translate(-16.173 -26.743)" fill="#26aae1" opacity="0.467"/>
    <path id="Path_26807" data-name="Path 26807" d="M803.16,147.525h0a2.38,2.38,0,0,1,.527,3.325l-7.77,10.695a2.38,2.38,0,0,1-3.325.527h0a2.38,2.38,0,0,1-.527-3.325l7.77-10.695A2.381,2.381,0,0,1,803.16,147.525Z" transform="translate(-6.177 -24.883)" fill="#26aae1" opacity="0.556"/>
    <path id="Path_26808" data-name="Path 26808" d="M791.411,134.987h0a2.38,2.38,0,0,1-1.528,3l-12.573,4.086a2.38,2.38,0,0,1-3-1.528h0a2.38,2.38,0,0,1,1.528-3l12.573-4.085A2.38,2.38,0,0,1,791.411,134.987Z" transform="translate(0 -20.014)" fill="#26aae1" opacity="0.644"/>
    <path id="Path_26809" data-name="Path 26809" d="M791.411,117.243h0a2.381,2.381,0,0,1-3,1.528l-12.573-4.086a2.38,2.38,0,0,1-1.528-3h0a2.379,2.379,0,0,1,3-1.528l12.573,4.085A2.381,2.381,0,0,1,791.411,117.243Z" transform="translate(0 -11.75)" fill="#26aae1" opacity="0.733"/>
    <path id="Path_26810" data-name="Path 26810" d="M803.16,101.071h0a2.38,2.38,0,0,1-3.325-.526l-7.77-10.7a2.38,2.38,0,0,1,.527-3.325h0a2.381,2.381,0,0,1,3.325.527l7.77,10.7A2.379,2.379,0,0,1,803.16,101.071Z" transform="translate(-6.177 -3.248)" fill="#26aae1" opacity="0.822"/>
  </g>
</svg>
