<svg xmlns="http://www.w3.org/2000/svg" width="149.179" height="60" viewBox="0 0 149.179 60">
  <g id="Group_11257" data-name="Group 11257" transform="translate(-491.97 -399.04)">
    <g id="Group_11254" data-name="Group 11254" transform="translate(491.97 399.04)">
      <path id="Path_27226" data-name="Path 27226" d="M491.97,422.26h13.71c5.2,0,6.23.571,9.334,3.675l8.152,8.034h18.808v4.353l-19.7-.1a2.143,2.143,0,0,1-1.485-.616l-9.682-9.553a5.32,5.32,0,0,0-3.743-1.535H491.987Z" transform="translate(-491.97 -409.25)" fill="#fff"/>
      <path id="Path_27227" data-name="Path 27227" d="M491.97,412.05V399.04h50v24.719h-4.292l.034-19.554v-.9H496.228v8.751" transform="translate(-491.97 -399.04)" fill="#fff"/>
      <path id="Path_27228" data-name="Path 27228" d="M516.953,475.965l25-25,.006-5.821-25.005,24.8-20.725-20.725V437.53H491.97v13.452Z" transform="translate(-491.97 -415.965)" fill="#fff"/>
      <path id="Path_27229" data-name="Path 27229" d="M507.318,450.481l-.028-6.051,16.4,16.4,5.945-5.945,5.95.067-11.906,11.906Z" transform="translate(-498.707 -418.999)" fill="#fff"/>
    </g>
    <path id="Path_27230" data-name="Path 27230" d="M606.019,465.53a8.608,8.608,0,0,1,3.95.908,6.585,6.585,0,0,1,2.74,2.476l-2.18,1.451a5.317,5.317,0,0,0-1.916-1.714,5.887,5.887,0,0,0-6.7,1.02,6.342,6.342,0,0,0,0,8.466,5.915,5.915,0,0,0,6.678,1.036,5.273,5.273,0,0,0,1.922-1.72l2.123,1.558a7.132,7.132,0,0,1-2.773,2.4,8.5,8.5,0,0,1-3.849.863,8.783,8.783,0,0,1-4.376-1.081,7.6,7.6,0,0,1-3-2.992,10.051,10.051,0,0,1-1.07-4.661,7.381,7.381,0,0,1,1.07-3.944,7.635,7.635,0,0,1,3-2.992A8.957,8.957,0,0,1,606.019,465.53Z" transform="translate(-46.435 -29.237)" fill="#fff"/>
    <path id="Path_27231" data-name="Path 27231" d="M637.477,485.994h-2.409v-1.328a4.174,4.174,0,0,1-3.474,1.614,5.245,5.245,0,0,1-3.933-1.647,6.241,6.241,0,0,1,0-8.326,5.245,5.245,0,0,1,3.933-1.647,4.2,4.2,0,0,1,3.474,1.625v-1.339h2.409Zm-5.592-9.065a3.087,3.087,0,0,0-2.42,1.02,3.937,3.937,0,0,0,0,5.042,3.069,3.069,0,0,0,2.42,1.02,3.124,3.124,0,0,0,2.4-1,3.928,3.928,0,0,0,0-5.076A3.122,3.122,0,0,0,631.886,476.929Z" transform="translate(-58.967 -33.252)" fill="#fff"/>
    <path id="Path_27232" data-name="Path 27232" d="M656.267,474.65a4.887,4.887,0,0,1,1.854.314l-.577,2.387a3.912,3.912,0,0,0-1.832-.4,2.488,2.488,0,0,0-1.905.784,3.094,3.094,0,0,0-.728,2.18v6.079H650.67V474.941h2.387v1.244A3.679,3.679,0,0,1,656.267,474.65Z" transform="translate(-69.784 -33.247)" fill="#fff"/>
    <path id="Path_27233" data-name="Path 27233" d="M680.544,468.531h-5.227v13.676h-2.605V468.531H667.49V466.06h13.054v2.471Z" transform="translate(-77.18 -29.47)" fill="#fff"/>
    <path id="Path_27234" data-name="Path 27234" d="M694.767,474.65a4.887,4.887,0,0,1,1.854.314l-.577,2.387a3.911,3.911,0,0,0-1.832-.4,2.488,2.488,0,0,0-1.9.784,3.094,3.094,0,0,0-.728,2.18v6.079H689.17V474.941h2.387v1.244A3.679,3.679,0,0,1,694.767,474.65Z" transform="translate(-86.713 -33.247)" fill="#fff"/>
    <path id="Path_27235" data-name="Path 27235" d="M715.012,481.535a5.54,5.54,0,0,1-.432,2.247,4.026,4.026,0,0,1-1.165,1.563,5.112,5.112,0,0,1-1.625.868,6.456,6.456,0,0,1-3.8,0,5.139,5.139,0,0,1-1.63-.868,3.932,3.932,0,0,1-1.165-1.563,5.562,5.562,0,0,1-.426-2.247V475.17h2.42v6.146a2.943,2.943,0,0,0,.734,2.213,3.092,3.092,0,0,0,3.933,0,2.951,2.951,0,0,0,.734-2.213V475.17h2.42v6.365Z" transform="translate(-93.573 -33.476)" fill="#fff"/>
    <path id="Path_27236" data-name="Path 27236" d="M733.347,477.722a6.638,6.638,0,0,0-1.535-.656,6.4,6.4,0,0,0-1.883-.286,2.791,2.791,0,0,0-1.535.359,1.1,1.1,0,0,0-.555.958.8.8,0,0,0,.459.773,5.011,5.011,0,0,0,1.361.37l1.143.174q3.841.563,3.838,3.266A3.11,3.11,0,0,1,733.3,485.3a6.085,6.085,0,0,1-3.692.992,10.107,10.107,0,0,1-2.392-.314,6.463,6.463,0,0,1-2.348-1.109l1.121-1.81a5.748,5.748,0,0,0,3.647,1.132,3.88,3.88,0,0,0,1.866-.359,1.1,1.1,0,0,0,.644-.992c0-.639-.639-1.048-1.916-1.221l-1.154-.151a5.246,5.246,0,0,1-2.8-1.081,2.729,2.729,0,0,1-.953-2.163,3.1,3.1,0,0,1,1.227-2.589,5.328,5.328,0,0,1,3.339-.953,8.128,8.128,0,0,1,4.477,1.165Z" transform="translate(-102.412 -33.261)" fill="#fff"/>
    <path id="Path_27237" data-name="Path 27237" d="M751.515,474.735h-3.989v4.807a2.2,2.2,0,0,0,.482,1.558,1.684,1.684,0,0,0,1.266.51,4.214,4.214,0,0,0,2.224-.751l.958,1.927a5.99,5.99,0,0,1-3.39,1.1,3.906,3.906,0,0,1-2.941-1.059A4.481,4.481,0,0,1,745.1,479.6V469.2h2.42v3.345h3.989v2.191Z" transform="translate(-111.307 -30.851)" fill="#fff"/>
    <g id="Group_11255" data-name="Group 11255" transform="translate(551.337 412.515)">
      <path id="Path_27238" data-name="Path 27238" d="M634.791,439.8H630.7v-6.611h-2.65V439.8h-4.309v-6.611h-2.65V439.8H617.22a3.425,3.425,0,0,1-1.076-.2,1.311,1.311,0,0,1-.4-.235.338.338,0,0,1-.118-.258V430.8h-2.65v7.116a2.864,2.864,0,0,1-.286,1.49c-.168.263-.583.4-1.233.4h-9.2c-.695,0-1.148-.168-1.35-.5a2.749,2.749,0,0,1-.331-1.406v-4.7h-2.65v5.02a3.635,3.635,0,0,0,1.126,2.992,4.515,4.515,0,0,0,2.88.88h10.029a4.8,4.8,0,0,0,2.168-.381,3.5,3.5,0,0,0,.9-.633,2.451,2.451,0,0,0,.953.745,3.683,3.683,0,0,0,1.451.269h20V430.806h-2.65V439.8Z" transform="translate(-597.93 -426.48)" fill="#fff"/>
      <path id="Path_27239" data-name="Path 27239" d="M683.781,430.79v9h-8.174v-9h-2.65v10.617a3.879,3.879,0,0,1-.555,2.336,2.522,2.522,0,0,1-2.068.689h-.5v2.28h.689a6.964,6.964,0,0,0,2.381-.359,3.844,3.844,0,0,0,1.558-1.014,3.906,3.906,0,0,0,.829-1.541,8.8,8.8,0,0,0,.286-1.731h10.858V430.79Z" transform="translate(-629.546 -426.476)" fill="#fff"/>
      <path id="Path_27240" data-name="Path 27240" d="M608.964,426.467a1.607,1.607,0,1,0-1.143-.471A1.565,1.565,0,0,0,608.964,426.467Z" transform="translate(-602.072 -423.156)" fill="#fff"/>
      <path id="Path_27241" data-name="Path 27241" d="M615.864,426.467a1.607,1.607,0,1,0-1.143-.471A1.565,1.565,0,0,0,615.864,426.467Z" transform="translate(-605.106 -423.156)" fill="#fff"/>
      <path id="Path_27242" data-name="Path 27242" d="M682.784,426.317a1.607,1.607,0,1,0-1.143-.471A1.587,1.587,0,0,0,682.784,426.317Z" transform="translate(-634.533 -423.09)" fill="#fff"/>
      <path id="Path_27243" data-name="Path 27243" d="M689.694,426.317a1.607,1.607,0,1,0-1.143-.471A1.587,1.587,0,0,0,689.694,426.317Z" transform="translate(-637.571 -423.09)" fill="#fff"/>
    </g>
    <g id="Group_11256" data-name="Group 11256" transform="translate(612.132 411.915)">
      <path id="Path_27244" data-name="Path 27244" d="M709.572,441.416a3.866,3.866,0,0,1-.56,2.342,2.522,2.522,0,0,1-2.067.689h-.5v2.28h.689a6.817,6.817,0,0,0,2.493-.4,3.862,3.862,0,0,0,1.586-1.126,4.126,4.126,0,0,0,.8-1.7,9.562,9.562,0,0,0,.219-2.1V430.81h-2.65Z" transform="translate(-706.44 -425.885)" fill="#fff"/>
      <path id="Path_27245" data-name="Path 27245" d="M740.65,430.161a4.694,4.694,0,0,0-1.614-1.944,6.6,6.6,0,0,0-2.516-1,16.764,16.764,0,0,0-3.227-.28H731l4.561-4.914h-3.306l-4.706,5.042v2.073h5.586a11.639,11.639,0,0,1,2.527.235,4.092,4.092,0,0,1,1.653.74,2.967,2.967,0,0,1,.93,1.367,4.325,4.325,0,0,1,.308,1.782v2.684H726.127c-.7,0-1.149-.151-1.333-.448a2.775,2.775,0,0,1-.314-1.468v-12h-2.65v12.32a3.649,3.649,0,0,0,1.115,2.992,4.441,4.441,0,0,0,2.869.885h15.4v-5.412A5.392,5.392,0,0,0,740.65,430.161Z" transform="translate(-713.207 -422.02)" fill="#fff"/>
    </g>
  </g>
</svg>
