<svg xmlns="http://www.w3.org/2000/svg" width="223.769" height="90" viewBox="0 0 223.769 90">
  <g id="Group_11265" data-name="Group 11265" transform="translate(644.21 392.25)">
    <g id="Group_11262" data-name="Group 11262" transform="translate(-644.21 -392.25)">
      <path id="Path_27266" data-name="Path 27266" d="M-644.21-361.26h20.569c7.8,0,9.349.856,14,5.509l12.233,12.057h28.218v6.529l-29.553-.151a3.194,3.194,0,0,1-2.222-.919l-14.525-14.336a8.012,8.012,0,0,0-5.616-2.3h-23.081Z" transform="translate(644.21 380.771)" fill="#2d3291"/>
      <path id="Path_27267" data-name="Path 27267" d="M-644.21-372.739V-392.25H-569.2v37.077h-6.441l.05-29.333v-1.36h-62.235v13.127" transform="translate(644.21 392.25)" fill="#26aae1"/>
      <path id="Path_27268" data-name="Path 27268" d="M-606.743-283.226l37.5-37.5.013-8.726-37.517,37.2-31.083-31.083V-340.89h-6.384V-320.7Z" transform="translate(644.21 373.226)" fill="#26aae1"/>
      <path id="Path_27269" data-name="Path 27269" d="M-623.722-322.6l-.038-9.072,24.592,24.6,8.921-8.915,8.928.1-17.862,17.862Z" transform="translate(636.635 369.811)" fill="#736efa"/>
    </g>
    <path id="Path_27270" data-name="Path 27270" d="M-490.576-303.5a12.935,12.935,0,0,1,5.924,1.36,9.869,9.869,0,0,1,4.111,3.708l-3.268,2.178a7.926,7.926,0,0,0-2.871-2.569,8.182,8.182,0,0,0-3.891-.925,8.3,8.3,0,0,0-6.151,2.455,8.644,8.644,0,0,0-2.43,6.346,8.669,8.669,0,0,0,2.43,6.353,8.288,8.288,0,0,0,6.151,2.455,8.235,8.235,0,0,0,3.866-.9,7.994,7.994,0,0,0,2.884-2.575l3.186,2.336a10.675,10.675,0,0,1-4.162,3.6,12.786,12.786,0,0,1-5.767,1.3A13.271,13.271,0,0,1-497.13-280a11.49,11.49,0,0,1-4.508-4.489,15.13,15.13,0,0,1-1.612-6.988,11,11,0,0,1,1.612-5.918,11.449,11.449,0,0,1,4.508-4.489A13.188,13.188,0,0,1-490.576-303.5Z" transform="translate(-52.213 -32.874)" fill="#2d3291"/>
    <path id="Path_27271" data-name="Path 27271" d="M-448.094-274.315h-3.614v-1.99a6.274,6.274,0,0,1-5.207,2.424,7.872,7.872,0,0,1-5.9-2.474A8.629,8.629,0,0,1-465.2-282.6a8.629,8.629,0,0,1,2.386-6.246,7.872,7.872,0,0,1,5.9-2.474,6.275,6.275,0,0,1,5.207,2.437v-2.008h3.614Zm-8.386-13.6a4.635,4.635,0,0,0-3.633,1.53,5.455,5.455,0,0,0-1.366,3.778,5.455,5.455,0,0,0,1.366,3.778,4.635,4.635,0,0,0,3.633,1.53,4.708,4.708,0,0,0,3.608-1.5,5.4,5.4,0,0,0,1.391-3.809,5.408,5.408,0,0,0-1.391-3.809A4.72,4.72,0,0,0-456.48-287.914Z" transform="translate(-66.307 -37.385)" fill="#2d3291"/>
    <path id="Path_27272" data-name="Path 27272" d="M-423.964-291.33a7.574,7.574,0,0,1,2.783.466l-.863,3.582a5.874,5.874,0,0,0-2.751-.6,3.69,3.69,0,0,0-2.852,1.177,4.645,4.645,0,0,0-1.089,3.268v9.116h-3.614V-290.9h3.582v1.87A5.466,5.466,0,0,1-423.964-291.33Z" transform="translate(-78.475 -37.382)" fill="#2d3291"/>
    <path id="Path_27273" data-name="Path 27273" d="M-390.333-299.078h-7.838v20.518h-3.91v-20.518h-7.838v-3.7h19.587Z" transform="translate(-86.783 -33.141)" fill="#736efa"/>
    <path id="Path_27274" data-name="Path 27274" d="M-372.564-291.33a7.574,7.574,0,0,1,2.783.466l-.863,3.582a5.874,5.874,0,0,0-2.751-.6,3.69,3.69,0,0,0-2.852,1.177,4.645,4.645,0,0,0-1.089,3.268v9.116h-3.614V-290.9h3.582v1.87A5.459,5.459,0,0,1-372.564-291.33Z" transform="translate(-97.514 -37.382)" fill="#736efa"/>
    <path id="Path_27275" data-name="Path 27275" d="M-344.782-281.089a8.253,8.253,0,0,1-.648,3.375,5.98,5.98,0,0,1-1.75,2.342,7.535,7.535,0,0,1-2.437,1.3,9.188,9.188,0,0,1-2.846.434,9.189,9.189,0,0,1-2.846-.434,7.847,7.847,0,0,1-2.449-1.3,5.965,5.965,0,0,1-1.75-2.342,8.358,8.358,0,0,1-.642-3.375v-9.551h3.633v9.223a4.442,4.442,0,0,0,1.1,3.324,4.068,4.068,0,0,0,2.953,1.058,4.088,4.088,0,0,0,2.953-1.058,4.442,4.442,0,0,0,1.1-3.324v-9.223h3.633v9.551Z" transform="translate(-105.218 -37.637)" fill="#736efa"/>
    <path id="Path_27276" data-name="Path 27276" d="M-320.581-286.729a10.05,10.05,0,0,0-2.3-.988,9.476,9.476,0,0,0-2.821-.434,4.217,4.217,0,0,0-2.3.535,1.641,1.641,0,0,0-.831,1.435,1.2,1.2,0,0,0,.693,1.158,7.1,7.1,0,0,0,2.04.554l1.712.258q5.761.85,5.761,4.9a4.66,4.66,0,0,1-2.008,3.929,9.112,9.112,0,0,1-5.534,1.486,15.269,15.269,0,0,1-3.589-.466,9.727,9.727,0,0,1-3.519-1.662l1.675-2.714a8.615,8.615,0,0,0,5.465,1.694,5.885,5.885,0,0,0,2.8-.535,1.644,1.644,0,0,0,.97-1.486q0-1.435-2.871-1.832l-1.731-.227a7.94,7.94,0,0,1-4.193-1.618,4.092,4.092,0,0,1-1.429-3.242,4.655,4.655,0,0,1,1.845-3.885,7.976,7.976,0,0,1,5.005-1.429,12.211,12.211,0,0,1,6.711,1.75Z" transform="translate(-115.171 -37.393)" fill="#736efa"/>
    <path id="Path_27277" data-name="Path 27277" d="M-296.7-290.306h-5.987v7.215a3.276,3.276,0,0,0,.724,2.336,2.5,2.5,0,0,0,1.9.762,6.318,6.318,0,0,0,3.337-1.127l1.435,2.89a8.977,8.977,0,0,1-5.087,1.643,5.85,5.85,0,0,1-4.413-1.593,6.733,6.733,0,0,1-1.542-4.842V-298.61h3.633v5.018h5.987v3.286Z" transform="translate(-125.154 -34.685)" fill="#736efa"/>
    <g id="Group_11263" data-name="Group 11263" transform="translate(-555.154 -372.059)">
      <path id="Path_27278" data-name="Path 27278" d="M-447.476-336.375h-6.138V-346.3h-3.973v9.922h-6.46V-346.3h-3.973v9.922h-5.8a4.9,4.9,0,0,1-.787-.076,4.792,4.792,0,0,1-.837-.22,1.7,1.7,0,0,1-.592-.353.5.5,0,0,1-.176-.384v-12.466h-3.973V-339.2a4.327,4.327,0,0,1-.428,2.235c-.258.39-.875.592-1.851.592h-13.8c-1.045,0-1.725-.258-2.021-.762a4.133,4.133,0,0,1-.5-2.109V-346.3h-3.973v7.53c0,2.084.567,3.589,1.694,4.483a6.769,6.769,0,0,0,4.319,1.322h15.041a7.213,7.213,0,0,0,3.249-.573,5.281,5.281,0,0,0,1.347-.951,3.664,3.664,0,0,0,1.429,1.121,5.614,5.614,0,0,0,2.172.4H-443.5V-349.88h-3.973v13.5Z" transform="translate(502.76 356.365)" fill="#736efa"/>
      <path id="Path_27279" data-name="Path 27279" d="M-385.862-349.88v13.5h-12.258v-13.5h-3.973v15.929a5.787,5.787,0,0,1-.837,3.507c-.535.686-1.58,1.033-3.1,1.033h-.755v3.419h1.033a10.516,10.516,0,0,0,3.576-.535,5.883,5.883,0,0,0,2.336-1.517,5.74,5.74,0,0,0,1.24-2.311,12.74,12.74,0,0,0,.428-2.6h16.294v-16.917h-3.979Z" transform="translate(467.212 356.365)" fill="#736efa"/>
      <path id="Path_27280" data-name="Path 27280" d="M-487.782-355.116a2.353,2.353,0,0,0,1.719-.711,2.353,2.353,0,0,0,.711-1.719,2.339,2.339,0,0,0-.711-1.712,2.349,2.349,0,0,0-1.712-.711,2.329,2.329,0,0,0-1.712.711,2.35,2.35,0,0,0-.711,1.712,2.354,2.354,0,0,0,.711,1.719A2.315,2.315,0,0,0-487.782-355.116Z" transform="translate(498.108 360.102)" fill="#736efa"/>
      <path id="Path_27281" data-name="Path 27281" d="M-478.556-355.112a2.353,2.353,0,0,0,1.719-.711,2.349,2.349,0,0,0,.711-1.712,2.339,2.339,0,0,0-.711-1.712,2.349,2.349,0,0,0-1.712-.711,2.353,2.353,0,0,0-1.719.711,2.35,2.35,0,0,0-.711,1.712,2.353,2.353,0,0,0,.711,1.719A2.348,2.348,0,0,0-478.556-355.112Z" transform="translate(494.692 360.099)" fill="#736efa"/>
      <path id="Path_27282" data-name="Path 27282" d="M-389.226-355.326a2.329,2.329,0,0,0,1.712-.711,2.353,2.353,0,0,0,.711-1.719,2.339,2.339,0,0,0-.711-1.712,2.349,2.349,0,0,0-1.712-.711,2.329,2.329,0,0,0-1.712.711,2.339,2.339,0,0,0-.711,1.712,2.353,2.353,0,0,0,.711,1.719A2.329,2.329,0,0,0-389.226-355.326Z" transform="translate(461.604 360.18)" fill="#736efa"/>
      <path id="Path_27283" data-name="Path 27283" d="M-380.01-355.326a2.329,2.329,0,0,0,1.712-.711,2.353,2.353,0,0,0,.711-1.719,2.339,2.339,0,0,0-.711-1.712,2.349,2.349,0,0,0-1.712-.711,2.353,2.353,0,0,0-1.719.711,2.339,2.339,0,0,0-.711,1.712,2.353,2.353,0,0,0,.711,1.719A2.353,2.353,0,0,0-380.01-355.326Z" transform="translate(458.192 360.18)" fill="#736efa"/>
    </g>
    <g id="Group_11264" data-name="Group 11264" transform="translate(-463.964 -372.947)">
      <path id="Path_27284" data-name="Path 27284" d="M-353.223-333.951a5.774,5.774,0,0,1-.837,3.507c-.535.686-1.58,1.033-3.1,1.033h-.756v3.419h1.033a10.161,10.161,0,0,0,3.74-.6,5.75,5.75,0,0,0,2.38-1.687,6.156,6.156,0,0,0,1.2-2.556,14.612,14.612,0,0,0,.327-3.154V-349.88h-3.973v15.929Z" transform="translate(357.92 357.253)" fill="#2d3291"/>
      <path id="Path_27285" data-name="Path 27285" d="M-309.143-349.376a7.05,7.05,0,0,0-2.418-2.915,10.026,10.026,0,0,0-3.771-1.5,25.327,25.327,0,0,0-4.835-.422H-323.6l6.844-7.372h-4.961l-7.064,7.561v3.1h8.374a17.6,17.6,0,0,1,3.79.353,6.057,6.057,0,0,1,2.481,1.114,4.421,4.421,0,0,1,1.391,2.046,6.47,6.47,0,0,1,.46,2.669v4.023h-18.642c-1.051,0-1.725-.227-2-.667a4.189,4.189,0,0,1-.472-2.2V-361.59h-3.973v18.485c0,2.084.56,3.589,1.668,4.483a6.654,6.654,0,0,0,4.3,1.322h23.093v-8.115A8.02,8.02,0,0,0-309.143-349.376Z" transform="translate(350.312 361.59)" fill="#2d3291"/>
    </g>
  </g>
</svg>
