<svg xmlns="http://www.w3.org/2000/svg" width="20.319" height="20.32" viewBox="0 0 20.319 20.32">
  <g id="Group_11550" data-name="Group 11550" transform="translate(-49.57 -416.141)">
    <path id="Path_27880" data-name="Path 27880" d="M12.7,11.01a.846.846,0,0,0-.847.847v3.387a.848.848,0,0,1-.847.847H8.467V3.39a1.706,1.706,0,0,0-1.153-1.61L7.063,1.7h3.944a.848.848,0,0,1,.847.847v2.54a.847.847,0,0,0,1.693,0V2.544A2.543,2.543,0,0,0,11.007,0H1.9a.665.665,0,0,0-.091.019C1.774.019,1.735,0,1.693,0A1.7,1.7,0,0,0,0,1.7v15.24a1.706,1.706,0,0,0,1.153,1.61l5.1,1.7a1.753,1.753,0,0,0,.525.079A1.7,1.7,0,0,0,8.467,18.63v-.847h2.54a2.543,2.543,0,0,0,2.54-2.54V11.857A.846.846,0,0,0,12.7,11.01Zm0,0" transform="translate(49.57 416.137)" fill="#2d3291"/>
    <path id="Path_27881" data-name="Path 27881" d="M286.4,110.3l-3.387-3.387a.846.846,0,0,0-1.445.6v2.54h-3.387a.847.847,0,1,0,0,1.693h3.387v2.54a.846.846,0,0,0,1.445.6L286.4,111.5A.846.846,0,0,0,286.4,110.3Zm0,0" transform="translate(-216.756 313.709)" fill="#2d3291"/>
  </g>
</svg>
