<svg xmlns="http://www.w3.org/2000/svg" xmlns:xlink="http://www.w3.org/1999/xlink" width="44" height="30" viewBox="0 0 44 30"><defs><clipPath id="a"><rect width="44" height="30" rx="5" transform="translate(1018 357)" fill="#f5f5f5"/></clipPath></defs><g transform="translate(-1018 -357)" clip-path="url(#a)"><path d="M5,0H39a5,5,0,0,1,5,5V25a5,5,0,0,1-5,5H5a5,5,0,0,1-5-5V5A5,5,0,0,1,5,0Z" transform="translate(1018 357)" fill="#f5f5f5"/><g transform="translate(990.88 184.945)"><rect width="15.33" height="5.107" transform="translate(31 187.941)" fill="#84b740"/><rect width="15.33" height="5.112" transform="translate(31 180.972)" fill="#259bd6"/><path d="M381.723,260.97l-.068.014a2.238,2.238,0,0,1-.5.064c-.4,0-.874-.2-.874-1.17,0-.5.082-1.156.828-1.156h0a2.242,2.242,0,0,1,.546.1l.059.018v2.126Zm.123-4.811-.123.023v1.784l-.109-.032-.032-.009a2.513,2.513,0,0,0-.678-.118c-1.493,0-1.807,1.129-1.807,2.076a1.841,1.841,0,0,0,2,2.044,4.051,4.051,0,0,0,1.334-.187.589.589,0,0,0,.5-.646v-5.121c-.355.064-.724.127-1.083.187" transform="translate(-320.063 -68.96)" fill="#27292d"/><path d="M437.454,281.684l-.064.018-.228.059a2.374,2.374,0,0,1-.551.086c-.351,0-.56-.173-.56-.469,0-.191.086-.514.66-.514h.742v.819Zm-.523-3.218a5.036,5.036,0,0,0-1.52.264l-.382.114.128.865.373-.123a4.387,4.387,0,0,1,1.243-.209c.164,0,.665,0,.665.542v.237h-.7c-1.27,0-1.857.405-1.857,1.274,0,.742.542,1.188,1.452,1.188a4.692,4.692,0,0,0,1.01-.137l.018,0,.018,0,.114.018c.355.064.724.128,1.083.2v-2.84c0-.919-.555-1.388-1.648-1.388" transform="translate(-371.355 -89.642)" fill="#27292d"/><path d="M327.638,281.684l-.064.018-.228.059a2.339,2.339,0,0,1-.551.086c-.35,0-.56-.173-.56-.469,0-.191.086-.514.655-.514h.742v.819Zm-.519-3.218a5.013,5.013,0,0,0-1.52.264l-.382.114.127.865.373-.123a4.387,4.387,0,0,1,1.243-.209c.164,0,.665,0,.665.542v.237h-.7c-1.27,0-1.862.405-1.862,1.274,0,.742.542,1.188,1.457,1.188a4.693,4.693,0,0,0,1.011-.137l.018,0,.018,0,.109.018c.36.064.724.128,1.083.2v-2.84c0-.928-.551-1.393-1.643-1.393" transform="translate(-270.383 -89.642)" fill="#27292d"/><path d="M248.74,278.527a3.071,3.071,0,0,0-1.233.273l-.046.023-.041-.032a1.868,1.868,0,0,0-1.106-.269,4.525,4.525,0,0,0-1.306.2c-.387.118-.537.3-.537.655v3.245h1.211v-3l.059-.018a1.542,1.542,0,0,1,.533-.1.479.479,0,0,1,.528.551v2.567h1.193v-2.617a.882.882,0,0,0-.036-.264l-.041-.077.082-.036a1.436,1.436,0,0,1,.592-.123.482.482,0,0,1,.528.551v2.567h1.188v-2.685c0-.951-.51-1.411-1.566-1.411" transform="translate(-196.279 -89.694)" fill="#27292d"/><path d="M367.08,184.3a4.133,4.133,0,0,1-.706-.064l-.068-.014v-1.752a.856.856,0,0,0-.032-.25l-.036-.073.077-.032c.018-.009.036-.014.059-.023l.014-.009.082-.027a.114.114,0,0,1,.032-.009,2.827,2.827,0,0,1,.624-.073h0c.742,0,.828.66.828,1.156,0,.965-.483,1.17-.879,1.17m0-3.332h-.032a2.145,2.145,0,0,0-1.666.564,1.139,1.139,0,0,0-.218.678h0v1.807a.535.535,0,0,1-.036.228l-.041.077h-2.2V183.07h0a1.873,1.873,0,0,0-1.944-2.053h-1.106c-.046.323-.082.551-.127.874h1.1c.578,0,.883.492.883,1.247V184.4l-.077-.041a.834.834,0,0,0-.259-.036h-1.9c-.036.241-.082.555-.132.869h5.849c.2-.041.432-.077.633-.109a3.293,3.293,0,0,0,1.224.223,2.172,2.172,0,0,0,.055-4.338" transform="translate(-301.874 0)" fill="#27292d"/><path d="M251.224,186.3h.055c1.27,0,1.862-.419,1.862-1.452a1.33,1.33,0,0,0-1.452-1.334h-1.17a.5.5,0,0,1-.56-.537c0-.228.087-.51.66-.51h2.558c.055-.332.082-.542.132-.874H250.65c-1.238,0-1.862.519-1.862,1.384s.542,1.3,1.452,1.3h1.17a.552.552,0,0,1,.56.569.572.572,0,0,1-.655.587h-.2l-3.746-.009h-.683c-.578,0-.983-.328-.983-1.088v-.523c0-.792.314-1.284.983-1.284H247.8c.05-.337.082-.551.127-.869h-1.516a1.9,1.9,0,0,0-1.944,2.085h0v.592a1.8,1.8,0,0,0,1.944,1.957h1.106l2.03,0h1.675Z" transform="translate(-196.277 -0.572)" fill="#27292d"/></g></g></svg>