<svg id="mail" xmlns="http://www.w3.org/2000/svg" width="45.721" height="30.48" viewBox="0 0 45.721 30.48">
  <g id="Group_11369" data-name="Group 11369">
    <path id="Path_27329" data-name="Path 27329" d="M43.376,85.333H2.345A2.351,2.351,0,0,0,0,87.678v25.791a2.352,2.352,0,0,0,2.345,2.345H43.376a2.352,2.352,0,0,0,2.345-2.345V87.678A2.352,2.352,0,0,0,43.376,85.333Zm-.88,1.758L24.209,100.808a2.451,2.451,0,0,1-2.7,0L3.224,87.091Zm-9.768,14.621,9.965,12.309c.01.012.022.022.033.033H3c.011-.012.023-.021.033-.033l9.965-12.309a.879.879,0,0,0-1.367-1.107L1.758,112.8V88.19l18.7,14.024a4.2,4.2,0,0,0,4.806,0l18.7-14.024v24.6l-9.867-12.189a.879.879,0,0,0-1.367,1.107Z" transform="translate(0 -85.333)" fill="#2c2e93"/>
  </g>
</svg>
