<svg xmlns="http://www.w3.org/2000/svg" width="44" height="30" viewBox="0 0 44 30"><g transform="translate(-1018 -448)"><rect width="44" height="30" rx="5" transform="translate(1018 448)" fill="#f5f5f5"/><g transform="translate(972.246 327.509)"><path d="M241.5,178.033h5.962v-.576h-5.447Zm0,0" transform="translate(-175.056 -47.833)" fill="#dbb000" fill-rule="evenodd"/><path d="M231.637,192.174h6.855V191.6H232Zm0,0" transform="translate(-166.09 -60.693)" fill="#dbb000" fill-rule="evenodd"/><path d="M224.277,206.272H231.8V205.7h-7.257Zm0,0" transform="translate(-159.397 -73.514)" fill="#dbb000" fill-rule="evenodd"/><path d="M219.223,220.416h7.98v-.576h-7.791Zm0,0" transform="translate(-154.8 -86.377)" fill="#dbb000" fill-rule="evenodd"/><path d="M220.248,288.748h7.734v-.576h-7.923Zm0,0" transform="translate(-155.56 -148.52)" fill="#dbb000" fill-rule="evenodd"/><path d="M225.608,302.889h7.162v-.576h-7.446Zm0,0" transform="translate(-160.349 -161.379)" fill="#dbb000" fill-rule="evenodd"/><path d="M233.48,316.99h6.36v-.576H233.1Zm0,0" transform="translate(-167.418 -174.204)" fill="#dbb000" fill-rule="evenodd"/><path d="M216.258,234.517h8.248v-.576h-8.131Zm0,0" transform="translate(-152.104 -99.201)" fill="#dbb000" fill-rule="evenodd"/><path d="M271.754,274.646H274.9v-.576h-3.032Zm0,0" transform="translate(-202.573 -135.695)" fill="#dbb000" fill-rule="evenodd"/><path d="M274.512,260.509h2.9v-.58h-2.782Zm0,0" transform="translate(-205.081 -122.836)" fill="#dbb000" fill-rule="evenodd"/><path d="M213.957,259.93h.818v.58h-.78Zm0,0" transform="translate(-150.012 -122.836)" fill="#dbb000" fill-rule="evenodd"/><path d="M165.188,243.175l-.053,0-.053-.007-.05-.007-.049-.007-.046-.007-.1-.014-.053-.007-.053-.007-.06,0-.068,0-.072,0h-.08l-.087,0-.1.007-.11.007-.076.011-.072.011-.064.022-.057.022-.053.025-.049.029-.038.036-.034.032-.023.04-.019.039-.008.043v.043l.012.046.015.046.031.047.038.046.076.068.091.054.106.046.114.04.121.036.125.039.125.043.121.047.114.061.106.075.094.09.079.111.061.136.038.161.015.193-.015.225-.027.168-.045.147-.061.136-.075.118-.087.1-.1.089-.106.079-.117.068-.121.053-.125.047-.129.035-.132.029-.129.022-.125.011-.125.007-.117,0h-.163l-.151,0h-.132l-.125,0-.113,0-.1-.007-.091-.007-.087-.011-.079-.007-.072-.014-.072-.011-.065-.018-.064-.014-.061-.022-.061-.022-.064-.022.171-.79.034.007.042.011.053.014.064.014.068.014.076.015.084.018.091.014.095.014.1.015.1.011.106.011.219.007h.11l.11,0,.11-.022.087-.029.068-.039.053-.05.038-.05.03-.057.019-.057.015-.053.007-.1-.034-.089-.064-.072-.094-.061-.114-.053-.133-.054-.148-.05-.148-.057-.151-.064-.144-.075-.132-.093-.121-.111-.094-.136-.068-.161-.034-.193,0-.229.019-.14.027-.132.038-.122.045-.114.061-.108.068-.093.08-.089.094-.079.11-.068.121-.057.136-.054.151-.04.171-.032.185-.025.2-.015.224,0h.14l.128,0,.117,0,.106,0,.094.007.087.007.076.007.068.007.065.007.053.011.05.007.045.007.038.007.034,0,.034.007.03,0" transform="translate(-102.768 -106.779)" fill="#dbb000" fill-rule="evenodd"/><path d="M165.188,243.175l-.053,0-.053-.007-.05-.007-.049-.007-.046-.007-.1-.014-.053-.007-.053-.007-.06,0-.068,0-.072,0h-.08l-.087,0-.1.007-.11.007-.076.011-.072.011-.064.022-.057.022-.053.025-.049.029-.038.036-.034.032-.023.04-.019.039-.008.043v.043l.012.046.015.046.031.047.038.046.076.068.091.054.106.046.114.04.121.036.125.039.125.043.121.047.114.061.106.075.094.09.079.111.061.136.038.161.015.193-.015.225-.027.168-.045.147-.061.136-.075.118-.087.1-.1.089-.106.079-.117.068-.121.053-.125.047-.129.035-.132.029-.129.022-.125.011-.125.007-.117,0h-.163l-.151,0h-.132l-.125,0-.113,0-.1-.007-.091-.007-.087-.011-.079-.007-.072-.014-.072-.011-.065-.018-.064-.014-.061-.022-.061-.022-.064-.022.171-.79.034.007.042.011.053.014.064.014.068.014.076.015.084.018.091.014.095.014.1.015.1.011.106.011.219.007h.11l.11,0,.11-.022.087-.029.068-.039.053-.05.038-.05.03-.057.019-.057.015-.053.007-.1-.034-.089-.064-.072-.094-.061-.114-.053-.133-.054-.148-.05-.148-.057-.151-.064-.144-.075-.132-.093-.121-.111-.094-.136-.068-.161-.034-.193,0-.229.019-.14.027-.132.038-.122.045-.114.061-.108.068-.093.08-.089.094-.079.11-.068.121-.057.136-.054.151-.04.171-.032.185-.025.2-.015.224,0h.14l.128,0,.117,0,.106,0,.094.007.087.007.076.007.068.007.065.007.053.011.05.007.045.007.038.007.034,0,.034.007.03,0" transform="translate(-102.768 -106.779)" fill="#dbb000"/><path d="M199.531,233.547h1.049l-.155.866h.632l-.137.809-.666-.018-.363,2,0,.072.019.061.038.046.049.039.068.025.076.022.083.014.091.007.083,0,.076-.007.069-.011.06-.015.049-.014.034-.011.023-.007.007,0-.132.666-.027.018-.027.014-.027.014-.027.014-.027.011-.03.011-.034.011-.034.011-.038.011-.038.007-.091.014-.05.007-.057.007-.061.007-.064.007h-.288l-.151-.011-.132-.015-.122-.021-.1-.025-.087-.032L199,238.1l-.065-.043-.049-.046-.038-.05-.027-.061-.019-.061-.011-.068,0-.075v-.079l.012-.082.011-.09" transform="translate(-136.214 -98.843)" fill="#dbb000" fill-rule="evenodd"/><path d="M199.531,233.547h1.049l-.155.866h.632l-.137.809-.666-.018-.363,2,0,.072.019.061.038.046.049.039.068.025.076.022.083.014.091.007.083,0,.076-.007.069-.011.06-.015.049-.014.034-.011.023-.007.007,0-.132.666-.027.018-.027.014-.027.014-.027.014-.027.011-.03.011-.034.011-.034.011-.038.011-.038.007-.091.014-.05.007-.057.007-.061.007-.064.007h-.288l-.151-.011-.132-.015-.122-.021-.1-.025-.087-.032L199,238.1l-.065-.043-.049-.046-.038-.05-.027-.061-.019-.061-.011-.068,0-.075v-.079l.012-.082.011-.09" transform="translate(-136.214 -98.843)" fill="#dbb000"/><path d="M222,244.506l-.011.061,0,.064.007.068.015.068.027.068.03.064.042.068.045.061.053.061.057.053.061.054.068.043.068.039.076.032.075.025.076.014.1.015.095.011.1.011.1.007.1,0h.1l.1,0,.1-.007.1-.014.1-.018.106-.021.1-.032.106-.04.11-.043.106-.057.11-.061-.151.88-.061.029-.061.029-.061.022-.057.021-.057.018-.061.018-.061.015-.064.011-.068.011-.075.007-.08.007-.087.007-.1,0h-.1l-.117,0h-.125l-.186,0-.189-.018-.189-.025-.189-.043-.185-.054-.178-.068-.17-.089-.159-.1-.148-.121-.129-.147-.11-.165-.091-.19-.064-.211-.042-.24-.011-.265.019-.294.015-.114.023-.132.03-.14.042-.15.057-.154.068-.154.087-.157.106-.15.121-.143.148-.136.167-.122.189-.107.219-.09.246-.064.272-.043.307-.014.148,0,.155.015.155.025.155.036.151.053.148.064.137.086.125.1.114.122.094.143.076.164.053.19.03.214,0,.243-.027.272-.057.3-.019.218h-2.76l.174-.7h1.658l.008-.089,0-.086-.008-.079-.015-.072-.027-.068-.026-.061-.038-.054-.038-.05-.045-.043-.049-.036-.057-.033-.057-.028-.061-.022-.061-.015-.064-.011-.068-.007-.072,0-.068.011-.065.015-.064.022-.064.028-.057.033-.057.039-.049.043-.049.05-.046.054-.041.057-.034.061-.034.064-.027.072-.023.071-.015.075" transform="translate(-156.321 -106.779)" fill="#dbb000" fill-rule="evenodd"/><path d="M222,244.506l-.011.061,0,.064.007.068.015.068.027.068.03.064.042.068.045.061.053.061.057.053.061.054.068.043.068.039.076.032.075.025.076.014.1.015.095.011.1.011.1.007.1,0h.1l.1,0,.1-.007.1-.014.1-.018.106-.021.1-.032.106-.04.11-.043.106-.057.11-.061-.151.88-.061.029-.061.029-.061.022-.057.021-.057.018-.061.018-.061.015-.064.011-.068.011-.075.007-.08.007-.087.007-.1,0h-.1l-.117,0h-.125l-.186,0-.189-.018-.189-.025-.189-.043-.185-.054-.178-.068-.17-.089-.159-.1-.148-.121-.129-.147-.11-.165-.091-.19-.064-.211-.042-.24-.011-.265.019-.294.015-.114.023-.132.03-.14.042-.15.057-.154.068-.154.087-.157.106-.15.121-.143.148-.136.167-.122.189-.107.219-.09.246-.064.272-.043.307-.014.148,0,.155.015.155.025.155.036.151.053.148.064.137.086.125.1.114.122.094.143.076.164.053.19.03.214,0,.243-.027.272-.057.3-.019.218h-2.76l.174-.7h1.658l.008-.089,0-.086-.008-.079-.015-.072-.027-.068-.026-.061-.038-.054-.038-.05-.045-.043-.049-.036-.057-.033-.057-.028-.061-.022-.061-.015-.064-.011-.068-.007-.072,0-.068.011-.065.015-.064.022-.064.028-.057.033-.057.039-.049.043-.049.05-.046.054-.041.057-.034.061-.034.064-.027.072-.023.071-.015.075" transform="translate(-156.321 -106.779)" fill="#dbb000"/><path d="M294.006,233.011l-.049-.025-.049-.021-.053-.025-.057-.025-.057-.021-.129-.043-.068-.021-.072-.018-.072-.014-.079-.015-.08-.011-.087-.007-.087-.007h-.28l-.1.007-.1.011-.106.018-.106.029-.106.039-.106.05-.106.064-.1.079-.1.093-.095.115-.091.132-.083.157-.08.179-.072.2-.061.229-.023.129-.015.125-.008.125,0,.122.011.121.027.115.034.107.042.108.057.1.068.093.08.082.091.075.1.064.117.054.129.046.144.032.049.011.057.011.068.007.076.007.083.007h.182l.094-.007.1-.011.1-.018.095-.025.094-.029.095-.039.087-.047.079-.057.076-.064-.17.955-.023.018-.023.022-.03.025-.034.022-.042.029-.053.025-.06.025-.068.022-.087.025-.1.018-.114.014-.132.014-.148.007-.171,0-.193,0-.212-.011-.174-.018-.174-.036-.174-.054-.174-.071-.167-.086-.159-.108-.151-.125-.14-.143-.125-.161-.106-.179-.091-.2-.068-.218-.045-.24-.015-.254.007-.279.042-.3.03-.147.034-.143.038-.14.038-.132.041-.125.049-.125.05-.118.053-.111.057-.111.057-.1.064-.1.068-.093.068-.09.076-.086.075-.079.08-.075.087-.071.087-.068.091-.061.095-.057.1-.054.1-.046.106-.043.11-.039.117-.036.117-.029.121-.025.129-.022.128-.018.137-.014.136-.007.144,0,.121,0,.117.007.114.011.114.014.106.015.1.022.1.018.091.022.087.022.076.021.072.022.06.021.053.018.046.015.034.014.023.007" transform="translate(-219.298 -97.226)" fill="#dbb000" fill-rule="evenodd"/><path d="M294.006,233.011l-.049-.025-.049-.021-.053-.025-.057-.025-.057-.021-.129-.043-.068-.021-.072-.018-.072-.014-.079-.015-.08-.011-.087-.007-.087-.007h-.28l-.1.007-.1.011-.106.018-.106.029-.106.039-.106.05-.106.064-.1.079-.1.093-.095.115-.091.132-.083.157-.08.179-.072.2-.061.229-.023.129-.015.125-.008.125,0,.122.011.121.027.115.034.107.042.108.057.1.068.093.08.082.091.075.1.064.117.054.129.046.144.032.049.011.057.011.068.007.076.007.083.007h.182l.094-.007.1-.011.1-.018.095-.025.094-.029.095-.039.087-.047.079-.057.076-.064-.17.955-.023.018-.023.022-.03.025-.034.022-.042.029-.053.025-.06.025-.068.022-.087.025-.1.018-.114.014-.132.014-.148.007-.171,0-.193,0-.212-.011-.174-.018-.174-.036-.174-.054-.174-.071-.167-.086-.159-.108-.151-.125-.14-.143-.125-.161-.106-.179-.091-.2-.068-.218-.045-.24-.015-.254.007-.279.042-.3.03-.147.034-.143.038-.14.038-.132.041-.125.049-.125.05-.118.053-.111.057-.111.057-.1.064-.1.068-.093.068-.09.076-.086.075-.079.08-.075.087-.071.087-.068.091-.061.095-.057.1-.054.1-.046.106-.043.11-.039.117-.036.117-.029.121-.025.129-.022.128-.018.137-.014.136-.007.144,0,.121,0,.117.007.114.011.114.014.106.015.1.022.1.018.091.022.087.022.076.021.072.022.06.021.053.018.046.015.034.014.023.007" transform="translate(-219.298 -97.226)" fill="#dbb000"/><path d="M400.85,238.422H399.8l.075-.4v-.036l-.06.072-.064.064-.064.057-.068.05-.068.047-.068.039-.068.032-.072.032-.072.025-.072.018-.072.018-.076.011-.076.011-.072.007-.076,0h-.076l-.2-.015-.182-.039-.167-.061-.151-.082-.136-.1-.121-.122-.106-.132-.091-.15-.076-.161-.06-.168-.042-.175-.03-.182-.011-.183,0-.186.019-.182.034-.183.057-.211.068-.2.08-.183.094-.172.1-.161.113-.143.117-.129.125-.118.133-.1.14-.09.144-.079.144-.061.151-.05.151-.032.152-.022.155-.007.11,0,.106.011.1.018.091.025.087.028.076.032.076.039.068.04.061.043.057.047.049.046.046.046.038.047.034.046.03.043.023.043.265-1.406h1.03" transform="translate(-316.823 -99.02)" fill="#dbb000" fill-rule="evenodd"/><path d="M400.85,238.422H399.8l.075-.4v-.036l-.06.072-.064.064-.064.057-.068.05-.068.047-.068.039-.068.032-.072.032-.072.025-.072.018-.072.018-.076.011-.076.011-.072.007-.076,0h-.076l-.2-.015-.182-.039-.167-.061-.151-.082-.136-.1-.121-.122-.106-.132-.091-.15-.076-.161-.06-.168-.042-.175-.03-.182-.011-.183,0-.186.019-.182.034-.183.057-.211.068-.2.08-.183.094-.172.1-.161.113-.143.117-.129.125-.118.133-.1.14-.09.144-.079.144-.061.151-.05.151-.032.152-.022.155-.007.11,0,.106.011.1.018.091.025.087.028.076.032.076.039.068.04.061.043.057.047.049.046.046.046.038.047.034.046.03.043.023.043.265-1.406h1.03" transform="translate(-316.823 -99.02)" fill="#dbb000"/><path d="M411.374,254.725l.106-.007.1-.021.091-.025.087-.039.08-.043.076-.054.072-.061.064-.065.057-.071.053-.079.049-.082.042-.086.038-.089.03-.093.027-.1.019-.1.019-.1.011-.1v-.1l0-.1-.011-.093-.015-.09-.027-.086-.03-.082-.038-.071-.045-.068-.049-.057-.057-.05-.064-.043-.068-.029-.072-.018-.08-.007-.1.007-.095.014-.087.029-.087.036-.076.047-.075.057-.064.061-.064.068-.057.079-.053.082-.049.086-.041.093-.038.1-.03.1-.03.1-.022.1-.019.157.008.172.026.175.049.168.076.146.1.118.125.079" transform="translate(-329.061 -116.189)" fill="#dbb000" fill-rule="evenodd"/><path d="M125.464,245.674l-.151.794h-.954l.026-.147.019-.132.015-.1.015-.054-.053.057-.061.057-.072.054-.079.05-.091.05-.094.043-.1.042-.1.036-.11.032-.11.025-.109.021-.114.015-.11.007-.11,0-.106-.011-.1-.015-.133-.032-.121-.036-.106-.047-.094-.053-.083-.057-.076-.065-.06-.068-.053-.071-.045-.075-.038-.079-.03-.079-.023-.079-.015-.082-.011-.082-.007-.079v-.079l.011-.139.023-.132.038-.125.049-.122.06-.115.068-.1.079-.1.091-.09.094-.082.106-.075.11-.068.114-.057.121-.05.125-.039.129-.032.132-.022h.008l.019,0,.027,0,.041,0,.045-.007.053,0,.057-.007.064-.007.129-.014.068,0,.061-.007.061,0,.057,0,.053,0h.129l.091,0,.083,0h.083l.068,0,.053,0,.038,0h.011l.008-.025.023-.064.019-.075.008-.068-.015-.079-.034-.071-.046-.064-.061-.053-.072-.047-.08-.032-.091-.022-.1-.007-.106,0-.114,0h-.117l-.121,0-.125.007-.121.011-.121.011-.117.014-.114.014-.11.018-.1.018-.091.018-.083.022-.068.021-.053.025-.042.021.269-.862.083-.032.083-.029.091-.025.091-.018.091-.018.1-.014.1-.014.1-.007.106-.007.109,0,.114,0h.364l.132,0,.132,0,.106.007.113.018.117.025.121.032.117.043.114.05.114.061.106.068.094.079.083.086.075.1.057.107.038.115.023.122v.136l-.023.143" transform="translate(-66.398 -107.066)" fill="#dbb000" fill-rule="evenodd"/><path d="M125.464,245.674l-.151.794h-.954l.026-.147.019-.132.015-.1.015-.054-.053.057-.061.057-.072.054-.079.05-.091.05-.094.043-.1.042-.1.036-.11.032-.11.025-.109.021-.114.015-.11.007-.11,0-.106-.011-.1-.015-.133-.032-.121-.036-.106-.047-.094-.053-.083-.057-.076-.065-.06-.068-.053-.071-.045-.075-.038-.079-.03-.079-.023-.079-.015-.082-.011-.082-.007-.079v-.079l.011-.139.023-.132.038-.125.049-.122.06-.115.068-.1.079-.1.091-.09.094-.082.106-.075.11-.068.114-.057.121-.05.125-.039.129-.032.132-.022h.008l.019,0,.027,0,.041,0,.045-.007.053,0,.057-.007.064-.007.129-.014.068,0,.061-.007.061,0,.057,0,.053,0h.129l.091,0,.083,0h.083l.068,0,.053,0,.038,0h.011l.008-.025.023-.064.019-.075.008-.068-.015-.079-.034-.071-.046-.064-.061-.053-.072-.047-.08-.032-.091-.022-.1-.007-.106,0-.114,0h-.117l-.121,0-.125.007-.121.011-.121.011-.117.014-.114.014-.11.018-.1.018-.091.018-.083.022-.068.021-.053.025-.042.021.269-.862.083-.032.083-.029.091-.025.091-.018.091-.018.1-.014.1-.014.1-.007.106-.007.109,0,.114,0h.364l.132,0,.132,0,.106.007.113.018.117.025.121.032.117.043.114.05.114.061.106.068.094.079.083.086.075.1.057.107.038.115.023.122v.136l-.023.143" transform="translate(-66.398 -107.066)" fill="#dbb000"/><path d="M136.371,265.682l0-.018-.015-.018-.023-.011-.037-.007-.042-.007-.049,0h-.114l-.061,0-.064.007-.06.007-.061.007-.057.007-.053.011-.045.011-.042.011-.027.007-.03.011-.041.015-.041.018-.05.021-.049.025-.053.025-.049.029-.053.036-.049.036-.045.043-.042.043-.038.046-.027.05-.023.057-.011.057,0,.121.019.1.038.071.049.054.057.036.064.022.061.011.061,0,.114,0,.1-.011.1-.014.087-.021.076-.025.072-.032.065-.032.057-.04.049-.035.046-.043.037-.04.03-.043.027-.043.023-.043.019-.039.011-.04.03-.1.026-.118.023-.115" transform="translate(-78.217 -128.008)" fill="#dbb000" fill-rule="evenodd"/><path d="M61.819,238.244h-1.03l.859-4.7h1.791l.17,2.787,1.238-2.787h1.87l-.878,4.7h-1.03l.651-3.51h-.042l-1.541,3.51H62.716l-.008-.147-.027-.39-.034-.554-.038-.637-.038-.64-.034-.562-.027-.408-.007-.172h-.057" transform="translate(-10.718 -98.843)" fill="#dbb000" fill-rule="evenodd"/><path d="M61.819,238.244h-1.03l.859-4.7h1.791l.17,2.787,1.238-2.787h1.87l-.878,4.7h-1.03l.651-3.51h-.042l-1.541,3.51H62.716l-.008-.147-.027-.39-.034-.554-.038-.637-.038-.64-.034-.562-.027-.408-.007-.172h-.057" transform="translate(-10.718 -98.843)" fill="#dbb000"/><path d="M333.07,245.674l-.155.794h-.95l.007-.147,0-.128v-.1l.007-.043-.049.054-.057.053-.068.05-.076.05-.08.046-.091.043-.094.043-.095.036-.1.028-.106.029-.106.018-.106.015-.11.007-.106,0-.1-.011-.1-.015-.136-.032-.121-.036-.106-.047-.1-.053-.083-.057-.072-.065-.061-.068-.053-.071-.046-.075-.034-.079-.03-.079-.019-.079-.015-.082-.011-.082-.007-.079v-.079l.007-.139.023-.132.034-.125.049-.122.057-.115.072-.1.08-.1.087-.09.1-.082.1-.075.11-.068.117-.057.118-.05.125-.039.125-.032.129-.022h.007l.019,0,.026,0,.038,0,.049-.007.053,0,.057-.007.06-.007.064-.007.068-.007.064,0,.064-.007.061,0,.053,0,.053,0h.133l.091,0,.087,0h.084l.072,0,.061,0,.034,0h.015l.007-.025.011-.064.012-.075.007-.068-.015-.079-.03-.071-.05-.064-.057-.053-.068-.047-.08-.032-.083-.022-.091-.007-.106,0-.114,0h-.117l-.121,0-.125.007-.121.011-.121.011-.117.014-.114.014-.11.018-.1.018-.091.018-.083.022-.068.021-.053.025-.041.021.265-.862.083-.032.087-.029.087-.025.091-.018.094-.018.094-.014.1-.014.1-.007.106-.007.11,0,.11,0h.356l.128,0,.129,0,.106.007.114.018.117.025.121.032.117.043.118.05.114.061.106.068.094.079.087.086.076.1.057.107.042.115.026.122v.136l-.019.143" transform="translate(-255.216 -107.066)" fill="#dbb000" fill-rule="evenodd"/><path d="M365.558,277.421l.023-.021.155-.794-.045-.007-.156.794.023-.022v.05l.019,0,0-.018" transform="translate(-287.86 -137.994)" fill="#dbb000" fill-rule="evenodd"/><path d="M355.008,285.154l.023.025h.95v-.05h-.95l.023.025h-.045l0,.025h.027" transform="translate(-278.282 -145.752)" fill="#dbb000" fill-rule="evenodd"/><path d="M355.107,280.7l-.034-.029-.015.057,0,.1v.128l-.007.147h.045l.008-.147.007-.128,0-.1V280.7l-.034-.029" transform="translate(-278.321 -141.695)" fill="#dbb000" fill-rule="evenodd"/><path d="M339.461,281.154l.106.014.1.011.106,0,.11-.007.11-.014.105-.018.106-.029.106-.028.094-.036.1-.043.091-.043.159-.1.068-.05.06-.057.049-.054-.038-.028-.049.054-.053.05-.068.05-.072.05-.08.043-.091.042-.091.043-.094.036-.1.029-.106.028-.106.018-.1.014-.11.007-.106,0-.1-.011-.1-.014" transform="translate(-264.147 -141.695)" fill="#dbb000" fill-rule="evenodd"/><path d="M329.344,274.07l0,.079.007.079.011.086.015.082.019.079.03.082.034.082.049.075.053.075.06.068.076.068.087.057.1.057.11.046.125.036.137.032.007-.043-.137-.032-.117-.036-.1-.046-.1-.05-.08-.057-.068-.061-.061-.068-.053-.068-.041-.075-.034-.075-.03-.075-.019-.079-.015-.082-.011-.079-.008-.079,0-.079" transform="translate(-254.947 -135.695)" fill="#dbb000" fill-rule="evenodd"/><path d="M330.7,258.9l-.132.022-.129.032-.125.039-.121.05-.117.058-.113.071-.1.075-.1.086-.091.09-.08.1-.076.107-.057.118-.049.121-.034.129-.023.136-.011.139h.053l0-.139.023-.129.034-.121.049-.121.057-.111.068-.1.08-.1.083-.09.1-.079.1-.075.106-.064.117-.057.113-.05.125-.04.121-.032.125-.022" transform="translate(-254.947 -121.901)" fill="#dbb000" fill-rule="evenodd"/><path d="M345.131,258.074h-.042l-.053.007-.053,0-.061,0-.064.007-.064,0-.068.007-.064.007-.061.007-.057.007-.053,0-.049.007-.038,0-.03,0-.015,0h-.007v.043h.007l.023,0,.023,0,.038,0,.049-.007.053,0,.057-.007.061-.007.064-.007.068-.007.064,0,.064-.007.061,0,.053,0h.095" transform="translate(-268.595 -121.148)" fill="#dbb000" fill-rule="evenodd"/><path d="M353.468,258.113l.023-.018h-.015l-.034,0-.06,0-.072-.007h-.17l-.091-.007h-.091v.05h.182l.087.007h.156l.06,0,.034,0h.015l.023-.018-.023.018.019,0,0-.022" transform="translate(-276.421 -121.148)" fill="#dbb000" fill-rule="evenodd"/><path d="M358.636,255.98h0l0,.068-.011.072-.011.064-.008.025.046.007.007-.025.011-.064.011-.079.011-.068h0" transform="translate(-281.551 -119.244)" fill="#dbb000" fill-rule="evenodd"/><path d="M354.047,251.6v0l.087,0,.08.022.076.032.064.043.053.05.046.061.03.064.015.075h.045l-.015-.082-.03-.079-.053-.068-.061-.057-.072-.05-.083-.033-.087-.021-.094-.011v0" transform="translate(-277.412 -115.223)" fill="#dbb000" fill-rule="evenodd"/><path d="M336.117,251.7l.038.022.038-.018.05-.025.064-.021.083-.021.091-.018.1-.018.11-.018.109-.014.117-.014.121-.011.121-.011.125-.007h.352l.106,0v-.043l-.106,0-.114-.007H337.4l-.121.007-.125.007-.121.011-.121.011-.117.014-.117.015-.11.018-.1.018-.091.018-.083.022-.072.022-.057.025-.045.025.038.022" transform="translate(-261.106 -115.148)" fill="#dbb000" fill-rule="evenodd"/><path d="M336.4,244.25l-.016.018-.265.862.045.007.265-.863-.016.018-.015-.043-.011,0,0,.014" transform="translate(-261.106 -108.576)" fill="#dbb000" fill-rule="evenodd"/><path d="M340.892,242.323l-.129-.007-.129,0h-.356l-.11.007-.11,0-.106.007-.1.007-.1.015-.094.014-.095.018-.091.018-.091.025-.087.029-.083.032.015.043.084-.032.087-.029.084-.025.091-.018.095-.018.095-.014.094-.015.1-.007.106-.007.11,0h.466l.129,0h.129" transform="translate(-263.916 -106.814)" fill="#dbb000" fill-rule="evenodd"/><path d="M359.1,243.646l.019-.146v-.136l-.026-.125-.042-.118-.061-.111-.076-.1-.091-.09-.095-.079-.11-.068-.114-.064-.121-.05-.117-.043-.125-.032-.117-.025-.117-.018-.106-.007v.043l.106.007.11.018.117.025.117.032.117.043.114.05.114.057.1.068.094.079.083.082.076.093.053.1.042.111.027.118v.136l-.019.14" transform="translate(-280.829 -106.924)" fill="#dbb000" fill-rule="evenodd"/><path d="M367.3,257.639l.4-1.889-.045-.007-.4,1.889" transform="translate(-289.423 -119.027)" fill="#dbb000" fill-rule="evenodd"/><path d="M343.973,265.646l-.007-.021-.015-.018-.027-.011-.038-.011-.042,0-.049,0h-.057l-.057,0-.061.007-.06.007-.061.007-.057.007-.057.011-.05.007-.049.011-.038.007-.027,0-.03.011-.038.011-.042.014-.049.022-.045.021-.053.025-.1.064-.049.039-.042.039-.042.046-.034.05-.026.054-.023.057-.011.061,0,.121.019.1.03.071.046.054.057.036.064.022.064.011.064,0,.114,0,.106-.011.1-.018.087-.025.083-.029.072-.032.068-.036.06-.042.053-.04.045-.046.042-.043.034-.046.027-.043.019-.043.015-.043.011-.039.016-.1.019-.1.015-.1" transform="translate(-267.035 -127.972)" fill="#dbb000" fill-rule="evenodd"/><path d="M370.637,246.543H371.7l.382-2.036.015-.079.023-.079.023-.079.03-.079.038-.079.046-.075.049-.071.061-.068.068-.061.076-.057.087-.054.1-.043.11-.036.121-.029.133-.022.148-.007h.094l.17-.919-.106.007-.1.011-.094.018-.091.025-.083.029-.08.036-.076.039-.072.043-.068.05-.064.05-.061.057-.06.057-.057.061-.057.068-.057.064-.053.072.114-.648h-1.064" transform="translate(-292.499 -107.141)" fill="#dbb000" fill-rule="evenodd"/><path d="M370.637,246.543H371.7l.382-2.036.015-.079.023-.079.023-.079.03-.079.038-.079.046-.075.049-.071.061-.068.068-.061.076-.057.087-.054.1-.043.11-.036.121-.029.133-.022.148-.007h.094l.17-.919-.106.007-.1.011-.094.018-.091.025-.083.029-.08.036-.076.039-.072.043-.068.05-.064.05-.061.057-.06.057-.057.061-.057.068-.057.064-.053.072.114-.648h-1.064" transform="translate(-292.499 -107.141)" fill="#dbb000"/><path d="M259.969,246.543h1.087l.363-2.036.015-.079.038-.15.027-.071.03-.072.038-.068.045-.064.053-.061.061-.054.068-.053.083-.043.091-.039.106-.032.117-.029.129-.018.148-.011h.011l.016,0,.019,0h.019l.019,0,.015,0,.011,0h0l0-.014.011-.043.015-.064.019-.079.026-.093.027-.1.034-.1.034-.1.03-.068.038-.068.037-.068.038-.061.034-.053.027-.043.019-.025.007-.011h0l-.015,0-.019,0-.027,0h-.027l-.03,0-.027,0h-.026l-.117.007-.106.011-.1.018-.091.022-.087.028-.079.036-.072.036-.068.043-.064.046-.061.054-.057.053-.057.061-.057.061-.053.068-.057.071-.057.072.136-.648h-1.086" transform="translate(-191.856 -107.141)" fill="#dbb000" fill-rule="evenodd"/><path d="M259.969,246.543h1.087l.363-2.036.015-.079.038-.15.027-.071.03-.072.038-.068.045-.064.053-.061.061-.054.068-.053.083-.043.091-.039.106-.032.117-.029.129-.018.148-.011h.011l.016,0,.019,0h.019l.019,0,.015,0,.011,0h0l0-.014.011-.043.015-.064.019-.079.026-.093.027-.1.034-.1.034-.1.03-.068.038-.068.037-.068.038-.061.034-.053.027-.043.019-.025.007-.011h0l-.015,0-.019,0-.027,0h-.027l-.03,0-.027,0h-.026l-.117.007-.106.011-.1.018-.091.022-.087.028-.079.036-.072.036-.068.043-.064.046-.061.054-.057.053-.057.061-.057.061-.053.068-.057.071-.057.072.136-.648h-1.086" transform="translate(-191.856 -107.141)" fill="#dbb000"/><path d="M226.412,146.072l.58-.014.571-.039.56-.068.556-.093.541-.118.534-.143.523-.168.511-.19.5-.214.485-.233.469-.258.458-.276.439-.3.424-.315.409-.333.39-.354.375-.369.352-.386.333-.4.314-.415.291-.433.273-.444.246-.458.227-.472.2-.483.178-.494.151-.5.125-.512.1-.526.072-.53.042-.54.015-.547-.015-.544-.042-.536-.072-.53-.1-.519-.125-.512-.151-.5-.178-.494-.2-.479-.227-.469-.246-.458-.273-.44-.291-.433-.314-.415-.333-.4-.352-.386-.375-.368-.39-.351-.409-.333-.424-.315-.439-.3-.458-.275-.469-.254-.485-.232-.5-.215-.511-.19-.523-.168-.534-.143-.541-.118-.556-.093-.56-.068-.571-.039-.58-.015-.575.015-.571.039-.56.068-.553.093-.541.118-.534.143-.519.168-.511.19-.5.215-.481.232-.469.254-.454.275-.439.3-.424.315-.4.333-.39.351-.371.368-.352.386-.333.4-.311.415-.292.433-.269.44-.25.458-.223.469-.2.479-.174.494-.151.5-.125.512-.1.519-.072.53-.042.536-.015.544.015.547.042.54.072.53.1.526.125.512.151.5.174.494.2.483.223.472.25.458.269.444.292.433.311.415.333.4.352.386.371.369.39.354.4.333.424.315.439.3.454.276.469.258.481.233.5.214.511.19.519.168.534.143.541.118.553.093.56.068.571.039" transform="translate(-151.152 0)" fill="#fab51d" fill-rule="evenodd"/><path d="M60.247,146.072l.576-.014.571-.039.56-.068.552-.093.542-.118.533-.143.519-.168.511-.19.5-.214.481-.233.47-.258.454-.276.439-.3.424-.315.405-.333.39-.354.371-.369.352-.386.333-.4.31-.415.292-.433.269-.444.25-.458.224-.472.2-.483.174-.494.151-.5.125-.512.1-.526.072-.53.042-.54.015-.547-.015-.544-.042-.536-.072-.53-.1-.519-.125-.512-.151-.5-.174-.494-.2-.479-.224-.469-.25-.458-.269-.44-.292-.433-.31-.415-.333-.4-.352-.386-.371-.368-.39-.351-.405-.333-.424-.315-.439-.3-.454-.275-.47-.254-.481-.232-.5-.215-.511-.19-.519-.168-.533-.143-.542-.118-.552-.093-.56-.068-.571-.039-.576-.015-.579.015-.571.039-.561.068-.556.093-.541.118-.534.143-.523.168-.511.19-.5.215-.485.232-.47.254-.458.275-.439.3-.424.315-.409.333-.39.351-.375.368-.352.386-.333.4-.314.415-.292.433-.273.44-.246.458-.227.469-.2.479-.178.494-.151.5-.125.512-.1.519-.072.53-.042.536-.015.544.015.547.042.54.072.53.1.526.125.512.151.5.178.494.2.483.227.472.246.458.273.444.292.433.314.415.333.4.352.386.375.369.39.354.409.333.424.315.439.3.458.276.47.258.485.233.5.214.511.19.523.168.534.143.541.118.556.093.561.068.571.039" transform="translate(0 0)" fill="#e3041f" fill-rule="evenodd"/><path d="M241.5,163.986h5.962v-.576h-5.447Zm0,0" transform="translate(-175.056 -35.059)" fill="#fab51d" fill-rule="evenodd"/><path d="M231.637,178.127h6.855v-.576H232Zm0,0" transform="translate(-166.09 -47.919)" fill="#fab51d" fill-rule="evenodd"/><path d="M224.277,192.225H231.8v-.576h-7.257Zm0,0" transform="translate(-159.397 -60.739)" fill="#fab51d" fill-rule="evenodd"/><path d="M219.223,206.369h7.98v-.576h-7.791Zm0,0" transform="translate(-154.8 -73.603)" fill="#fab51d" fill-rule="evenodd"/><path d="M220.248,274.7h7.734v-.576h-7.923Zm0,0" transform="translate(-155.56 -135.745)" fill="#fab51d" fill-rule="evenodd"/><path d="M225.608,288.841h7.162v-.576h-7.446Zm0,0" transform="translate(-160.349 -148.605)" fill="#fab51d" fill-rule="evenodd"/><path d="M233.48,302.943h6.36v-.576H233.1Zm0,0" transform="translate(-167.418 -161.429)" fill="#fab51d" fill-rule="evenodd"/><path d="M244.163,317.048h5.254v-.58h-5.788Zm0,0" transform="translate(-176.996 -174.253)" fill="#fab51d" fill-rule="evenodd"/><path d="M216.258,220.471h8.248v-.576h-8.131Zm0,0" transform="translate(-152.104 -86.427)" fill="#fab51d" fill-rule="evenodd"/><path d="M271.754,260.6H274.9v-.576h-3.032Zm0,0" transform="translate(-202.573 -122.921)" fill="#fab51d" fill-rule="evenodd"/><path d="M274.512,246.462h2.9v-.58h-2.782Zm0,0" transform="translate(-205.081 -110.061)" fill="#fab51d" fill-rule="evenodd"/><path d="M213.957,245.883h.818v.58h-.78Zm0,0" transform="translate(-150.012 -110.061)" fill="#fab51d" fill-rule="evenodd"/><path d="M165.188,229.128l-.053,0-.053-.007-.05-.007-.049-.007-.046-.007-.1-.014-.053-.007-.053-.007-.06,0-.068,0-.072,0h-.08l-.087,0-.1.007-.11.007-.076.011-.072.011-.064.022-.057.022-.053.025-.049.029-.038.036-.034.033-.023.039-.019.039-.008.043v.043l.012.046.015.046.031.047.038.046.076.068.091.054.106.046.114.04.121.036.125.039.125.043.121.046.114.061.106.075.094.089.079.111.061.136.038.161.015.193-.015.225-.027.168-.045.147-.061.136-.075.118-.087.1-.1.089-.106.079-.117.068-.121.054-.125.046-.129.036-.132.029-.129.022-.125.011-.125.007-.117,0h-.163l-.151,0h-.132l-.125,0-.113,0-.1-.007-.091-.007-.087-.011-.079-.007-.072-.014-.072-.011-.065-.018-.064-.014-.061-.022-.061-.022-.064-.022.171-.79.034.007.042.011.053.015.064.014.068.015.076.014.084.018.091.015.095.015.1.014.1.011.106.011.219.007h.11l.11,0,.11-.022.087-.029.068-.039.053-.05.038-.05.03-.057.019-.057.015-.053.007-.1-.034-.09-.064-.072-.094-.061-.114-.053-.133-.054-.148-.05-.148-.057-.151-.064-.144-.075-.132-.093-.121-.111-.094-.136-.068-.161-.034-.193,0-.229.019-.14.027-.132.038-.121.045-.115.061-.107.068-.093.08-.089.094-.079.11-.068.121-.057.136-.054.151-.04.171-.032.185-.025.2-.015.224,0h.14l.128,0,.117,0,.106,0,.094.007.087.007.076.007.068.007.065.007.053.011.05.007.045.007.038.007.034,0,.034.007.03,0" transform="translate(-102.768 -94.004)" fill="#fff" fill-rule="evenodd"/><path d="M165.188-282.872l-.053,0-.053-.007-.05-.007-.049-.007-.046-.007-.1-.014-.053-.007-.053-.007-.06,0-.068,0-.072,0h-.08l-.087,0-.1.007-.11.007-.076.011-.072.011-.064.022-.057.022-.053.025-.049.029-.038.036-.034.033-.023.039-.019.039-.008.043v.043l.012.046.015.046.031.047.038.046.076.068.091.054.106.046.114.04.121.036.125.039.125.043.121.046.114.061.106.075.094.089.079.111.061.136.038.161.015.193-.015.225-.027.168-.045.147-.061.136-.075.118-.087.1-.1.089-.106.079-.117.068-.121.054-.125.046-.129.036-.132.029-.129.022-.125.011-.125.007-.117,0h-.163l-.151,0h-.132l-.125,0-.113,0-.1-.007-.091-.007-.087-.011-.079-.007-.072-.014-.072-.011-.065-.018-.064-.014-.061-.022-.061-.022-.064-.022.171-.79.034.007.042.011.053.014.064.014.068.014.076.014.084.018.091.015.095.014.1.014.1.011.106.011.219.007h.11l.11,0,.11-.022.087-.029.068-.039.053-.05.038-.05.03-.057.019-.057.015-.053.007-.1-.034-.09-.064-.072-.094-.061-.114-.053-.133-.054-.148-.05-.148-.057-.151-.064-.144-.075-.132-.093-.121-.111-.094-.136-.068-.161-.034-.193,0-.229.019-.14.027-.132.038-.121.045-.115.061-.107.068-.093.08-.089.094-.079.11-.068.121-.057.136-.054.151-.04.171-.032.185-.025.2-.015.224,0h.14l.128,0,.117,0,.106,0,.094.007.087.007.076.007.068.007.065.007.053.011.05.007.045.007.038.007.034,0,.034.007.03,0-.193.809" transform="translate(-102.768 417.996)" fill="none" stroke="#fff" stroke-miterlimit="2.613" stroke-width="0.216"/><path d="M199.531,219.5h1.049l-.155.866h.632l-.137.808-.666-.018-.363,2,0,.072.019.061.038.046.049.039.068.025.076.022.083.014.091.007.083,0,.076-.007.069-.011.06-.015.049-.014.034-.011.023-.007.007,0-.132.666-.027.018-.027.015-.027.014-.027.015-.027.011-.03.011-.068.021-.038.011-.038.007-.091.014-.05.007-.057.007-.061.007-.064.007h-.288l-.151-.011-.132-.014-.122-.021-.1-.025-.087-.032-.072-.036-.065-.043-.049-.046-.038-.05-.027-.061-.019-.061-.011-.068,0-.075v-.079l.012-.082.011-.09" transform="translate(-136.214 -86.068)" fill="#fff" fill-rule="evenodd"/><path d="M199.531-292.5h1.049l-.155.866h.632l-.137.809-.666-.018-.363,2,0,.072.019.061.038.046.049.039.068.025.076.022.083.014.091.007.083,0,.076-.007.069-.011.06-.015.049-.014.034-.011.023-.007.007,0-.132.666-.027.018-.027.014-.027.014-.027.015-.027.011-.03.011-.068.021-.038.011-.038.007-.091.014-.05.007-.057.007-.061.007-.064.007h-.288l-.151-.011-.132-.014-.122-.021-.1-.025-.087-.032-.072-.036-.065-.043-.049-.046-.038-.05-.027-.061-.019-.061-.011-.068,0-.075v-.079l.012-.082.011-.09.723-3.9" transform="translate(-136.214 425.932)" fill="none" stroke="#fff" stroke-miterlimit="2.613" stroke-width="0.216"/><path d="M222,230.459l-.011.061,0,.064.007.068.015.068.027.068.03.064.042.068.045.061.053.061.057.053.061.054.068.043.068.039.076.032.075.025.076.015.1.015.095.011.1.011.1.007.1,0h.1l.1,0,.1-.007.1-.014.1-.018.106-.022.1-.032.106-.04.11-.043.106-.057.11-.061-.151.88-.061.029-.061.028-.061.022-.057.022-.057.018-.061.018-.061.014-.064.011-.068.011-.075.007-.08.007-.087.007-.1,0h-.1l-.117,0h-.125l-.186,0-.189-.018-.189-.025-.189-.043L222,231.99l-.178-.068-.17-.089-.159-.1-.148-.121-.129-.147-.11-.165-.091-.19-.064-.211-.042-.24-.011-.265.019-.293.015-.114.023-.132.03-.14.042-.15.057-.154.068-.154.087-.158.106-.15.121-.143.148-.136.167-.122.189-.107.219-.09.246-.064.272-.043.307-.014.148,0,.155.015.155.025.155.036.151.053.148.064.137.086.125.1.114.122.094.143.076.165.053.19.03.215,0,.243-.027.272-.057.3-.019.218h-2.76l.174-.7h1.658l.008-.089,0-.086-.008-.079-.015-.071-.027-.068-.026-.061-.038-.054-.038-.05-.045-.043-.049-.036-.057-.032-.057-.028-.061-.022-.061-.015-.064-.011-.068-.007-.072,0-.068.011-.065.014-.064.022-.064.028-.057.033-.057.039-.049.043-.049.05-.046.054-.041.057-.034.061-.034.064-.027.071-.023.071-.015.075" transform="translate(-156.321 -94.004)" fill="#fff" fill-rule="evenodd"/><path d="M222-281.541l-.011.061,0,.064.007.068.015.068.027.068.03.064.042.068.045.061.053.061.057.053.061.054.068.043.068.039.076.032.075.025.076.015.1.014.095.011.1.011.1.007.1,0h.1l.1,0,.1-.007.1-.014.1-.018.106-.022.1-.032.106-.04.11-.043.106-.057.11-.061-.151.88-.061.029-.061.028-.061.022-.057.022-.057.018-.061.018-.061.014-.064.011-.068.011-.075.007-.08.007-.087.007-.1,0h-.1l-.117,0h-.125l-.186,0-.189-.018-.189-.025-.189-.043L222-280.01l-.178-.068-.17-.089-.159-.1-.148-.121-.129-.147-.11-.165-.091-.19-.064-.211-.042-.24-.011-.265.019-.293.015-.114.023-.132.03-.14.042-.15.057-.154.068-.154.087-.157.106-.15.121-.143.148-.136.167-.122.189-.107.219-.09.246-.064.272-.043.307-.014.148,0,.155.015.155.025.155.036.151.053.148.064.137.086.125.1.114.122.094.143.076.165.053.19.03.215,0,.243-.027.272-.057.3-.019.218h-2.76l.174-.7h1.658l.008-.089,0-.086-.008-.079-.015-.072-.027-.068-.026-.061-.038-.054-.038-.05-.045-.043-.049-.036-.057-.032-.057-.028-.061-.022-.061-.015-.064-.011-.068-.007-.072,0-.068.011-.065.014-.064.022-.064.028-.057.033-.057.039-.049.043-.049.05-.046.054-.041.057-.034.061-.034.064-.027.072-.023.071-.015.075-.151.741" transform="translate(-156.321 417.996)" fill="none" stroke="#fff" stroke-miterlimit="2.613" stroke-width="0.216"/><path d="M294.006,218.96l-.049-.025-.049-.021-.053-.025-.057-.025-.057-.022-.064-.021-.064-.022-.068-.022-.072-.018-.072-.015-.079-.014-.08-.011-.087-.007-.087-.007h-.28l-.1.007-.1.011-.106.018-.106.029-.106.04-.106.05-.106.064-.1.079-.1.093-.095.115-.091.132-.083.157-.08.179-.072.2-.061.229-.023.129-.015.125-.008.125,0,.122.011.121.027.115.034.107.042.108.057.1.068.093.08.082.091.075.1.064.117.054.129.047.144.032.049.011.057.011.068.007.076.007.083.007h.182l.094-.007.1-.011.1-.018.095-.025.094-.029.095-.039.087-.047.079-.057.076-.064-.17.955-.023.018-.023.021-.03.026-.034.021-.042.029-.053.025-.06.025-.068.021-.087.025-.1.018-.114.014-.132.014-.148.007-.171,0-.193,0-.212-.011-.174-.018-.174-.036-.174-.054-.174-.071-.167-.086-.159-.107-.151-.125-.14-.143-.125-.161-.106-.179-.091-.2-.068-.218-.045-.24-.015-.254.007-.279.042-.3.03-.147.034-.143.038-.14.038-.132.041-.125.049-.125.05-.118.053-.111.057-.111.057-.1.064-.1.068-.093.068-.089.076-.086.075-.079.08-.075.087-.071.087-.068.091-.061.095-.057.1-.054.1-.046.106-.043.11-.04.117-.036.117-.029.121-.025.129-.021.128-.018.137-.014.136-.007.144,0,.121,0,.117.007.114.011.114.014.106.015.1.022.1.018.091.022.087.022.076.021.072.022.06.022.053.018.046.014.034.014.023.007" transform="translate(-219.298 -84.448)" fill="#fff" fill-rule="evenodd"/><path d="M294.006-293.04l-.049-.025-.049-.021-.053-.025-.057-.025-.057-.022-.064-.021-.064-.022-.068-.022-.072-.018-.072-.015-.079-.014-.08-.011-.087-.007-.087-.007h-.28l-.1.007-.1.011-.106.018-.106.029-.106.04-.106.05-.106.064-.1.079-.1.093-.095.115-.091.132-.083.157-.08.179-.072.2-.061.229-.023.129-.015.125-.008.125,0,.122.011.121.027.115.034.107.042.108.057.1.068.093.08.082.091.075.1.064.117.054.129.047.144.032.049.011.057.011.068.007.076.007.083.007h.182l.094-.007.1-.011.1-.018.095-.025.094-.029.095-.039.087-.047.079-.057.076-.064-.17.955-.023.018-.023.021-.03.026-.034.021-.042.029-.053.025-.06.025-.068.021-.087.025-.1.018-.114.014-.132.014-.148.007-.171,0-.193,0-.212-.011-.174-.018-.174-.036-.174-.054-.174-.071-.167-.086-.159-.107-.151-.125-.14-.143-.125-.161-.106-.179-.091-.2-.068-.218-.045-.24-.015-.254.007-.279.042-.3.03-.147.034-.143.038-.14.038-.132.041-.125.049-.125.05-.118.053-.111.057-.111.057-.1.064-.1.068-.093.068-.089.076-.086.075-.079.08-.075.087-.071.087-.068.091-.061.095-.057.1-.054.1-.046.106-.043.11-.04.117-.036.117-.029.121-.025.129-.021.128-.018.137-.014.136-.007.144,0,.121,0,.117.007.114.011.114.014.106.014.1.022.1.018.091.022.087.022.076.021.072.022.06.022.053.018.046.014.034.015.023.007-.189.991" transform="translate(-219.298 427.552)" fill="none" stroke="#fff" stroke-miterlimit="2.613" stroke-width="0.216"/><path d="M400.85,224.375H399.8l.075-.4v-.036l-.06.071-.064.064-.064.057-.068.05-.068.047-.068.039-.068.032-.072.032-.072.025-.072.018-.072.018-.076.011-.076.011-.072.007-.076,0h-.076l-.2-.014-.182-.04-.167-.061-.151-.082-.136-.1-.121-.121-.106-.132-.091-.15-.076-.161-.06-.168-.042-.176-.03-.183-.011-.182,0-.186.019-.183.034-.183.057-.211.068-.2.08-.183.094-.172.1-.161.113-.143.117-.129.125-.118.133-.1.14-.09.144-.079.144-.061.151-.05.151-.032.152-.022.155-.007.11,0,.106.011.1.018.091.025.087.029.076.032.076.04.068.039.061.043.057.046.049.047.046.046.038.047.034.046.03.043.023.043.265-1.406h1.03" transform="translate(-316.823 -86.246)" fill="#fff" fill-rule="evenodd"/><path d="M400.85-287.625H399.8l.075-.4v-.036l-.06.071-.064.064-.064.057-.068.05-.068.047-.068.039-.068.032-.072.032-.072.025-.072.018-.072.018-.076.011-.076.011-.072.007-.076,0h-.076l-.2-.014-.182-.04-.167-.061-.151-.082-.136-.1-.121-.121-.106-.132-.091-.15-.076-.161-.06-.168-.042-.176-.03-.183-.011-.182,0-.186.019-.183.034-.183.057-.211.068-.2.08-.183.094-.172.1-.161.113-.143.117-.129.125-.118.133-.1.14-.089.144-.079.144-.061.151-.05.151-.032.152-.022.155-.007.11,0,.106.011.1.018.091.025.087.029.076.032.076.04.068.039.061.043.057.046.049.047.046.046.038.047.034.046.03.043.023.043.265-1.406h1.03l-.856,4.68" transform="translate(-316.823 425.754)" fill="none" stroke="#fff" stroke-miterlimit="2.613" stroke-width="0.216"/><path d="M411.374,240.678l.106-.007.1-.022.091-.025.087-.039.08-.043.076-.054.072-.061.064-.064.057-.071.053-.079.049-.082.042-.086.038-.089.03-.093.027-.1.019-.1.019-.1.011-.1v-.1l0-.1-.011-.093-.015-.09-.027-.086-.03-.082-.038-.071-.045-.068-.049-.057-.057-.05-.064-.043-.068-.029-.072-.018-.08-.007-.1.007-.095.014-.087.029-.087.036-.076.047-.075.057-.064.061-.064.068-.057.079-.053.082-.049.086-.041.093-.038.1-.03.1-.03.1-.022.1-.019.157.008.172.026.175.049.168.076.146.1.118.125.079" transform="translate(-329.061 -103.414)" fill="#fab51d" fill-rule="evenodd"/><path d="M125.464,231.627l-.151.794h-.954l.026-.147.019-.132.015-.1.015-.054-.053.058-.061.057-.072.054-.079.05-.091.05-.094.043-.1.043-.1.036-.11.032-.11.025-.109.021-.114.014-.11.007-.11,0-.106-.011-.1-.014-.133-.032-.121-.036-.106-.047-.094-.053-.083-.057-.076-.064-.06-.068-.053-.071-.045-.075-.038-.079-.03-.079-.023-.079-.015-.082-.011-.082-.007-.079v-.079l.011-.139.023-.133.038-.125.049-.122.06-.115.068-.1.079-.1.091-.089.094-.082.106-.075.11-.068.114-.057.121-.05.125-.039.129-.033.132-.021h.008l.019,0,.027,0,.041,0,.045-.007.053,0,.057-.007.064-.007.129-.014.068,0,.061-.007.061,0,.057,0,.053,0h.129l.091,0,.083,0h.083l.068,0,.053,0,.038,0h.011l.008-.025.023-.064.019-.075.008-.068-.015-.079-.034-.071-.046-.064-.061-.053-.072-.047-.08-.032-.091-.022-.1-.007-.106,0-.114,0h-.117l-.121,0-.125.007-.121.011-.121.011-.117.015-.114.014-.11.018-.1.018-.091.018-.083.021-.068.022-.053.025-.042.021.269-.862.083-.032.083-.029.091-.025.182-.035.1-.015.1-.014.1-.007.106-.007.109,0,.114,0h.364l.265.007.106.007.113.018.117.025.121.032.117.043.114.05.114.061.106.068.094.079.083.086.075.1.057.107.038.115.023.122v.136l-.023.143" transform="translate(-66.398 -94.292)" fill="#fff" fill-rule="evenodd"/><path d="M125.464-280.373l-.151.794h-.954l.026-.147.019-.132.015-.1.015-.054-.053.058-.061.057-.072.054-.079.05-.091.05-.094.043-.1.043-.1.036-.11.032-.11.025-.109.021-.114.014-.11.007-.11,0-.106-.011-.1-.014-.133-.032-.121-.036-.106-.047-.094-.053-.083-.057-.076-.064-.06-.068-.053-.071-.045-.075-.038-.079-.03-.079-.023-.079-.015-.082-.011-.082-.007-.079v-.079l.011-.139.023-.133.038-.125.049-.122.06-.115.068-.1.079-.1.091-.089.094-.082.106-.075.11-.068.114-.057.121-.05.125-.039.129-.033.132-.021h.008l.019,0,.027,0,.041,0,.045-.007.053,0,.057-.007.064-.007.129-.014.068,0,.061-.007.061,0,.057,0,.053,0h.129l.091,0,.083,0h.083l.068,0,.053,0,.038,0h.011l.008-.025.023-.064.019-.075.008-.068-.015-.079-.034-.071-.046-.064-.061-.053-.072-.047-.08-.032-.091-.022-.1-.007-.106,0-.114,0h-.117l-.121,0-.125.007-.121.011-.121.011-.117.014-.114.014-.11.018-.1.018-.091.018-.083.021-.068.022-.053.025-.042.021.269-.862.083-.032.083-.029.091-.025.182-.035.1-.015.1-.014.1-.007.106-.007.109,0,.114,0h.364l.265.007.106.007.113.018.117.025.121.032.117.043.114.05.114.061.106.068.094.079.083.086.075.1.057.107.038.115.023.122v.136l-.023.143-.382,1.889" transform="translate(-66.398 417.708)" fill="none" stroke="#fff" stroke-miterlimit="2.613" stroke-width="0.216"/><path d="M136.371,251.635l0-.018-.015-.018-.023-.011-.037-.007-.042-.007-.049,0h-.114l-.061,0-.064.007-.06.007-.061.007-.057.007-.053.011-.045.011-.042.011-.027.007-.03.011-.041.014-.041.018-.05.021-.049.025-.053.025-.049.029-.053.036-.049.036-.045.043-.042.043-.038.046-.027.05-.023.057-.011.057,0,.121.019.1.038.071.049.053.057.036.064.022.061.011.061,0,.114,0,.1-.011.1-.014.087-.022.076-.025.072-.032.065-.032.057-.039.049-.036.046-.043.037-.039.03-.043.027-.043.023-.043.019-.039.011-.04.03-.1.026-.118.023-.115" transform="translate(-78.217 -115.233)" fill="#e3041f" fill-rule="evenodd"/><path d="M61.819,224.2h-1.03l.859-4.7h1.791l.17,2.787,1.238-2.787h1.87l-.878,4.7h-1.03l.651-3.51h-.042l-1.541,3.51H62.716l-.008-.147-.027-.39-.034-.554-.038-.637-.038-.64-.034-.562-.027-.408-.007-.172h-.057" transform="translate(-10.718 -86.068)" fill="#fff" fill-rule="evenodd"/><path d="M61.819-287.8h-1.03l.859-4.7h1.791l.17,2.787,1.238-2.787h1.87l-.878,4.7h-1.03l.651-3.51h-.042l-1.541,3.51H62.716l-.008-.147-.027-.39-.034-.554-.038-.637-.038-.64-.034-.562-.027-.408-.007-.172h-.057l-.628,3.51" transform="translate(-10.718 425.932)" fill="none" stroke="#fff" stroke-miterlimit="2.613" stroke-width="0.216"/><path d="M333.07,231.627l-.155.794h-.95l.007-.147,0-.129v-.1l.007-.043-.049.054-.057.053-.068.05-.076.05-.08.046-.091.043-.094.043-.095.036-.1.028-.106.029-.106.018-.106.014-.11.007-.106,0-.1-.011-.1-.014-.136-.032-.121-.036-.106-.047-.1-.053-.083-.057-.072-.064-.061-.068-.053-.071-.046-.075-.034-.079-.03-.079-.019-.079-.015-.082-.011-.082-.007-.079v-.079l.007-.139.023-.133.034-.125.049-.122.057-.115.072-.1.08-.1.087-.089.1-.082.1-.075.11-.068.117-.057.118-.05.125-.039.125-.033.129-.021h.007l.019,0,.026,0,.038,0,.049-.007.053,0,.057-.007.06-.007.064-.007.068-.007.064,0,.064-.007.061,0,.053,0,.053,0h.133l.091,0,.087,0h.084l.072,0,.061,0,.034,0h.015l.007-.025.011-.064.012-.075.007-.068-.015-.079-.03-.071-.05-.064-.057-.053-.068-.047-.08-.032-.083-.022-.091-.007-.106,0-.114,0h-.117l-.121,0-.125.007-.121.011-.121.011-.117.015-.114.014-.11.018-.1.018-.091.018-.083.021-.068.022-.053.025-.041.021.265-.862.083-.032.087-.029.087-.025.091-.018.094-.018.094-.015.1-.014.1-.007.106-.007.11,0,.11,0h.356l.128,0,.129,0,.106.007.114.018.117.025.121.032.117.043.118.05.114.061.106.068.094.079.087.086.076.1.057.107.042.115.026.122v.136l-.019.143" transform="translate(-255.216 -94.292)" fill="#fff" fill-rule="evenodd"/><path d="M365.558,263.374l.023-.022.155-.794-.045-.007-.156.794.023-.022v.05l.019,0,0-.018" transform="translate(-287.86 -125.219)" fill="#fff" fill-rule="evenodd"/><path d="M355.008,271.107l.023.025h.95v-.05h-.95l.023.025h-.045l0,.025h.027" transform="translate(-278.282 -132.978)" fill="#fff" fill-rule="evenodd"/><path d="M355.107,266.649l-.034-.028-.015.057,0,.1v.129l-.007.147h.045l.008-.147.007-.129,0-.1v-.029l-.034-.028" transform="translate(-278.321 -128.921)" fill="#fff" fill-rule="evenodd"/><path d="M339.461,267.108l.106.014.1.011.106,0,.11-.007.11-.014.105-.018.106-.029.106-.029.094-.036.1-.043.091-.043.159-.1.068-.05.06-.057.049-.054-.038-.028-.049.054-.053.05-.068.05-.072.05-.08.043-.091.043-.091.043-.094.036-.1.029-.106.029-.106.018-.1.014-.11.007-.106,0-.1-.011-.1-.014" transform="translate(-264.147 -128.921)" fill="#fff" fill-rule="evenodd"/><path d="M329.344,260.023l0,.079.007.079.011.086.015.082.019.079.03.082.034.082.049.075.053.075.06.068.076.068.087.057.1.057.11.047.125.036.137.032.007-.043-.137-.032-.117-.036-.1-.046-.1-.05-.08-.057-.068-.061-.061-.068-.053-.068-.041-.075-.034-.075-.03-.075-.019-.079-.015-.082-.011-.079-.008-.079,0-.079" transform="translate(-254.947 -122.921)" fill="#fff" fill-rule="evenodd"/><path d="M330.7,244.855l-.132.022-.129.032-.125.039-.121.05-.117.057-.113.071-.1.075-.1.086-.091.089-.08.1-.076.107-.057.118-.049.122-.034.128-.023.136-.011.139h.053l0-.139.023-.129.034-.121.049-.121.057-.111.068-.1.08-.1.083-.089.1-.079.1-.075.106-.064.117-.057.113-.05.125-.04.121-.032.125-.021" transform="translate(-254.947 -109.127)" fill="#fff" fill-rule="evenodd"/><path d="M345.131,244.027h-.042l-.053.007-.053,0-.061,0-.064.007-.064,0-.068.007-.064.007-.061.007-.057.007-.053,0-.049.007-.038,0-.03,0-.015,0h-.007v.043h.007l.023,0,.023,0,.038,0,.049-.007.053,0,.057-.007.061-.007.064-.007.068-.007.064,0,.064-.007.061,0,.053,0h.095" transform="translate(-268.595 -108.374)" fill="#fff" fill-rule="evenodd"/><path d="M353.468,244.067l.023-.018h-.015l-.034,0-.06,0-.072-.007h-.17l-.091-.007h-.091v.05h.182l.087.007h.156l.06,0,.034,0h.015l.023-.018-.023.018.019,0,0-.022" transform="translate(-276.421 -108.374)" fill="#fff" fill-rule="evenodd"/><path d="M358.636,241.934h0l0,.068-.011.072-.011.064-.008.025.046.007.007-.025.011-.064.011-.079.011-.068h0" transform="translate(-281.551 -106.47)" fill="#fff" fill-rule="evenodd"/><path d="M354.047,237.555v0l.087,0,.08.022.076.032.064.043.053.05.046.061.03.064.015.075h.045l-.015-.082-.03-.079-.053-.068-.061-.057-.072-.05-.083-.033-.087-.021-.094-.011v0" transform="translate(-277.412 -102.445)" fill="#fff" fill-rule="evenodd"/><path d="M336.117,237.655l.038.022.038-.018.05-.025.064-.021.083-.022.091-.018.1-.018.11-.018.109-.014.117-.014.121-.011.121-.011.125-.007h.352l.106,0v-.043l-.106,0-.114-.007H337.4l-.121.007-.125.007-.121.011-.121.011-.117.014-.117.015-.11.018-.1.018-.091.018-.083.022-.072.021-.057.025-.045.025.038.021" transform="translate(-261.106 -102.374)" fill="#fff" fill-rule="evenodd"/><path d="M336.4,230.2l-.016.018-.265.863.045.007.265-.862-.016.018-.015-.043-.011,0,0,.014" transform="translate(-261.106 -95.802)" fill="#fff" fill-rule="evenodd"/><path d="M340.892,228.277l-.129-.007-.129,0h-.356l-.11.007-.11,0-.106.007-.1.007-.1.014-.094.014-.095.018-.091.018-.091.025-.087.029-.083.032.015.043.084-.032.087-.029.084-.025.091-.018.095-.018.095-.015.094-.014.1-.007.106-.007.11,0h.466l.129,0h.129" transform="translate(-263.916 -94.04)" fill="#fff" fill-rule="evenodd"/><path d="M359.1,229.6l.019-.146v-.136l-.026-.125-.042-.118-.061-.111-.076-.1-.091-.09-.095-.079-.11-.068-.114-.064-.121-.05-.117-.043-.125-.032-.117-.025-.117-.018-.106-.007v.043l.106.007.11.018.117.025.117.033.117.043.114.05.114.057.1.068.094.079.083.082.076.093.053.1.042.111.027.118v.136l-.019.139" transform="translate(-280.829 -94.15)" fill="#fff" fill-rule="evenodd"/><path d="M367.3,243.592l.4-1.889-.045-.007-.4,1.889" transform="translate(-289.423 -106.253)" fill="#fff" fill-rule="evenodd"/><path d="M343.973,251.6l-.007-.021-.015-.018-.027-.011-.038-.011-.042,0-.049,0h-.057l-.057,0-.061.007-.06.007-.061.007-.057.007-.057.011-.05.007-.049.011-.038.007-.027,0-.03.011-.038.011-.042.014-.049.022-.045.021-.053.026-.1.064-.049.039-.042.039-.042.047-.034.05-.026.054-.023.057-.011.061,0,.121.019.1.03.071.046.053.057.036.064.022.064.011.064,0,.114,0,.106-.011.1-.018.087-.025.083-.029.072-.033.068-.036.06-.042.053-.04.045-.046.042-.043.034-.046.027-.043.019-.043.015-.043.011-.039.016-.1.019-.1.015-.1" transform="translate(-267.035 -115.198)" fill="#fab51d" fill-rule="evenodd"/><path d="M370.637,232.492H371.7l.382-2.036.015-.079.023-.079.023-.079.03-.079.038-.079.046-.075.049-.071.061-.068.068-.061.076-.057.087-.054.1-.043.11-.036.121-.029.133-.022.148-.007h.094l.17-.92-.106.007-.1.011-.094.018-.091.025-.083.029-.08.036-.076.039-.072.043-.068.05-.064.05-.061.057-.06.057-.057.061-.057.068-.057.064-.053.072.114-.647h-1.064" transform="translate(-292.499 -94.363)" fill="#fff" fill-rule="evenodd"/><path d="M370.637-279.508H371.7l.382-2.036.015-.079.023-.079.023-.079.03-.079.038-.079.046-.075.049-.071.061-.068.068-.061.076-.057.087-.054.1-.043.11-.036.121-.029.133-.022.148-.007h.094l.17-.92-.106.007-.1.011-.094.018-.091.025-.083.029-.08.036-.076.039-.072.043-.068.05-.064.05-.061.057-.06.057-.057.061-.057.068-.057.064-.053.072.114-.647h-1.064l-.708,3.832" transform="translate(-292.499 417.637)" fill="none" stroke="#fff" stroke-miterlimit="2.613" stroke-width="0.216"/><path d="M259.969,232.492h1.087l.363-2.036.015-.079.038-.15.027-.072.03-.071.038-.068.045-.064.053-.061.061-.054.068-.053.083-.043.091-.039.106-.032.117-.029.129-.018.148-.011h.011l.016,0,.019,0h.019l.019,0,.015,0,.011,0h0l0-.015.011-.043.015-.064.019-.079.026-.093.027-.1.068-.2.03-.068.038-.068.037-.068.038-.061.034-.054.027-.043.019-.025.007-.011h0l-.015,0-.019,0-.027,0h-.027l-.03,0-.027,0h-.026l-.117.007-.106.011-.1.018-.091.022-.087.029-.079.036-.072.036-.068.043-.064.046-.061.054-.057.053-.057.061-.057.061-.053.068-.057.071-.057.072.136-.647h-1.086" transform="translate(-191.856 -94.363)" fill="#fff" fill-rule="evenodd"/><path d="M259.969-279.508h1.087l.363-2.036.015-.079.038-.15.027-.072.03-.071.038-.068.045-.064.053-.061.061-.054.068-.053.083-.043.091-.039.106-.032.117-.029.129-.018.148-.011h.011l.016,0,.019,0h.019l.019,0,.015,0,.011,0h0l0-.015.011-.043.015-.064.019-.079.026-.093.027-.1.068-.2.03-.068.038-.068.037-.068.038-.061.034-.054.027-.043.019-.025.007-.011h0l-.015,0-.019,0-.027,0h-.027l-.03,0-.027,0h-.026l-.117.007-.106.011-.1.018-.091.022-.087.029-.079.036-.072.036-.068.043-.064.046-.061.054-.057.053-.057.061-.057.061-.053.068-.057.071-.057.072.136-.647h-1.086l-.708,3.832" transform="translate(-191.856 417.637)" fill="none" stroke="#fff" stroke-miterlimit="2.613" stroke-width="0.216"/></g></g></svg>