<svg xmlns="http://www.w3.org/2000/svg" width="27.526" height="27.527" viewBox="0 0 16.764 20.732">
  <path id="Path_28020" data-name="Path 28020" d="M60.662,15.618h5.1V0H49V20.732H60.662Zm-.354-8.491a2.914,2.914,0,0,1-.144.9l.7.4-.607,1.052-.7-.405a2.927,2.927,0,0,1-1.566.906V10.8H56.774V9.989a2.927,2.927,0,0,1-1.566-.906l-.7.405L53.9,8.436l.7-.4a2.917,2.917,0,0,1,0-1.81l-.7-.4.607-1.052.7.405a2.927,2.927,0,0,1,1.566-.906V3.455h1.215v.809a2.927,2.927,0,0,1,1.566.906l.7-.405.607,1.052-.7.4a2.913,2.913,0,0,1,.144.9Zm-7.893,9.462V15.373H53.69v1.215Zm2.49-1.215h2.477v1.215H54.905ZM52.415,14V12.782H53.69V14Zm9.934,0H54.905V12.782h7.444V14Z" transform="translate(-49)" />
</svg>
