<svg xmlns="http://www.w3.org/2000/svg" 
  width="27.526" 
  height="27.527" 
  viewBox="0 0 19.097 29.451"
>
  
  <g id="text" transform="translate(0)">
    <path id="Path_28025" data-name="Path 28025" d="M.863,86h13V81.628a.863.863,0,0,1,.863-.863H19.1v-19.9A.862.862,0,0,0,18.234,60H14.725v.863a2.591,2.591,0,0,1-2.588,2.588H6.96a2.591,2.591,0,0,1-2.588-2.588V60H.863A.862.862,0,0,0,0,60.863V85.137A.862.862,0,0,0,.863,86ZM13,66.96h1.726a.863.863,0,0,1,0,1.726H13a.863.863,0,0,1,0-1.726Zm0,5.177h1.726a.863.863,0,0,1,0,1.726H13a.863.863,0,0,1,0-1.726Zm0,5.177h1.726a.863.863,0,0,1,0,1.726H13a.863.863,0,0,1,0-1.726Zm-9.238-10.1a.863.863,0,0,1,1.22,0L6.1,68.328l2.841-2.841a.863.863,0,0,1,1.22,1.22L6.707,70.159a.862.862,0,0,1-1.22,0L3.762,68.433a.862.862,0,0,1,0-1.22Zm0,5.177a.863.863,0,0,1,1.22,0L6.1,73.505l2.841-2.841a.863.863,0,0,1,1.22,1.22L6.707,75.336a.862.862,0,0,1-1.22,0L3.762,73.61a.862.862,0,0,1,0-1.22Zm0,5.177a.863.863,0,0,1,1.22,0L6.1,78.682l2.841-2.841a.863.863,0,1,1,1.22,1.22L6.707,80.512a.862.862,0,0,1-1.22,0L3.762,78.787a.862.862,0,0,1,0-1.22Z" transform="translate(0 -56.549)" />
    <path id="Path_28026" data-name="Path 28026" d="M274.422,451H271v3.421A4.463,4.463,0,0,0,274.422,451Z" transform="translate(-255.412 -425.058)" />
    <path id="Path_28029" data-name="Path 28029" d="M111.177,1.726a1.726,1.726,0,1,0-3.451,0h-.863a.863.863,0,0,0-.863.863V4.314a.863.863,0,0,0,.863.863h5.177a.863.863,0,0,0,.863-.863V2.588a.863.863,0,0,0-.863-.863Z" transform="translate(-99.903 0)"  />
  </g>
</svg>
