<svg xmlns="http://www.w3.org/2000/svg" width="18.333" height="20" viewBox="0 0 18.333 20">
  <g id="notification" transform="translate(0 0)">
    <path id="Path_27867" data-name="Path 27867" d="M136.457,419.75a3.129,3.129,0,0,1-3.125-3.125.625.625,0,1,1,1.25,0,1.875,1.875,0,0,0,3.75,0,.625.625,0,1,1,1.25,0A3.129,3.129,0,0,1,136.457,419.75Zm0,0" transform="translate(-128.124 -399.75)" fill="#fff"/>
    <path id="Path_27868" data-name="Path 27868" d="M15.208,79H1.458A1.459,1.459,0,0,1,.51,76.433a.575.575,0,0,1,.067-.05A5.6,5.6,0,0,0,2.5,72.158V69.833A5.84,5.84,0,0,1,8.333,64a2.51,2.51,0,0,1,.411.025.625.625,0,1,1-.205,1.232,1.311,1.311,0,0,0-.206-.007A4.589,4.589,0,0,0,3.75,69.833v2.325a6.854,6.854,0,0,1-2.419,5.226c-.013.01-.023.019-.037.028a.206.206,0,0,0-.044.129.211.211,0,0,0,.208.208h13.75a.211.211,0,0,0,.208-.208.2.2,0,0,0-.045-.129l-.036-.028a6.852,6.852,0,0,1-2.419-5.226V71.25a.625.625,0,0,1,1.25,0v.908a5.6,5.6,0,0,0,1.926,4.228.609.609,0,0,1,.064.048A1.458,1.458,0,0,1,15.208,79Zm0,0" transform="translate(0 -61.5)" fill="#fff"/>
    <path id="Path_27869" data-name="Path 27869" d="M260.167,8.333a4.167,4.167,0,1,1,4.167-4.167A4.171,4.171,0,0,1,260.167,8.333Zm0-7.083a2.917,2.917,0,1,0,2.917,2.917A2.92,2.92,0,0,0,260.167,1.25Zm0,0" transform="translate(-246 0)" fill="#fff"/>
  </g>
</svg>
