<svg xmlns="http://www.w3.org/2000/svg" width="19.217" height="19.218" viewBox="0 0 19.217 19.218">
  <path id="settings" d="M18.163,7.522l-1.505-.191a7.567,7.567,0,0,0-.456-1.1l.93-1.2a1.19,1.19,0,0,0-.1-1.585L15.773,2.188a1.194,1.194,0,0,0-1.589-.1l-1.2.93a7.54,7.54,0,0,0-1.1-.456l-.191-1.5A1.2,1.2,0,0,0,10.506,0H8.712a1.2,1.2,0,0,0-1.19,1.055L7.331,2.56a7.453,7.453,0,0,0-1.1.456l-1.2-.93a1.191,1.191,0,0,0-1.585.1L2.188,3.444a1.194,1.194,0,0,0-.1,1.59l.93,1.2a7.479,7.479,0,0,0-.456,1.1l-1.5.191A1.2,1.2,0,0,0,0,8.712v1.794A1.2,1.2,0,0,0,1.055,11.7l1.505.191a7.567,7.567,0,0,0,.456,1.1l-.93,1.2a1.19,1.19,0,0,0,.1,1.585L3.445,17.03a1.194,1.194,0,0,0,1.589.1l1.2-.93a7.393,7.393,0,0,0,1.1.456l.191,1.5a1.2,1.2,0,0,0,1.19,1.059h1.794a1.2,1.2,0,0,0,1.19-1.055l.191-1.505a7.567,7.567,0,0,0,1.1-.456l1.2.93a1.19,1.19,0,0,0,1.585-.1l1.261-1.261a1.193,1.193,0,0,0,.1-1.589l-.93-1.2a7.393,7.393,0,0,0,.456-1.1l1.5-.191a1.2,1.2,0,0,0,1.057-1.19V8.712a1.2,1.2,0,0,0-1.054-1.19Zm-8.554,6.09a4,4,0,1,1,4-4,4.008,4.008,0,0,1-4,4Z" fill="#2d3291"/>
</svg>
