<svg xmlns="http://www.w3.org/2000/svg" width="19.331" height="21.995" viewBox="0 0 19.331 21.995">
  <g id="headphones" transform="translate(-0.001 0)">
    <g id="Group_11536" data-name="Group 11536" transform="translate(2.578 9.021)">
      <g id="Group_11535" data-name="Group 11535">
        <path id="Path_27871" data-name="Path 27871" d="M92.933,210A1.935,1.935,0,0,0,91,211.933v5.241a1.933,1.933,0,0,0,3.866,0v-5.241A1.935,1.935,0,0,0,92.933,210Z" transform="translate(-91 -210)" fill="#2d3291"/>
      </g>
    </g>
    <g id="Group_11538" data-name="Group 11538" transform="translate(0.001 10.412)">
      <g id="Group_11537" data-name="Group 11537">
        <path id="Path_27872" data-name="Path 27872" d="M32.289,242.909a3.2,3.2,0,0,1,.055-.543A1.929,1.929,0,0,0,31,244.2v2.663a1.929,1.929,0,0,0,1.344,1.831,3.2,3.2,0,0,1-.055-.543Z" transform="translate(-31 -242.366)" fill="#2d3291"/>
      </g>
    </g>
    <g id="Group_11540" data-name="Group 11540" transform="translate(7.733 9.021)">
      <g id="Group_11539" data-name="Group 11539">
        <path id="Path_27873" data-name="Path 27873" d="M218.088,210a1.935,1.935,0,0,0-1.933,1.933v5.241a1.935,1.935,0,0,0,1.933,1.933,1.907,1.907,0,0,0,.554-.091A1.929,1.929,0,0,1,216.8,220.4h-2.052a1.933,1.933,0,1,0,0,1.289H216.8a3.226,3.226,0,0,0,3.222-3.222v-6.53A1.935,1.935,0,0,0,218.088,210Z" transform="translate(-211 -210)" fill="#2d3291"/>
      </g>
    </g>
    <g id="Group_11542" data-name="Group 11542" transform="translate(17.988 10.412)">
      <g id="Group_11541" data-name="Group 11541">
        <path id="Path_27874" data-name="Path 27874" d="M449.722,242.366a3.2,3.2,0,0,1,.055.543v5.241a3.2,3.2,0,0,1-.055.543,1.929,1.929,0,0,0,1.344-1.831V244.2A1.929,1.929,0,0,0,449.722,242.366Z" transform="translate(-449.722 -242.366)" fill="#2d3291"/>
      </g>
    </g>
    <g id="Group_11544" data-name="Group 11544" transform="translate(0.001 0)">
      <g id="Group_11543" data-name="Group 11543">
        <path id="Path_27875" data-name="Path 27875" d="M40.666,0A9.676,9.676,0,0,0,31,9.666v.016a3.191,3.191,0,0,1,1.318-.6,8.367,8.367,0,0,1,16.695,0,3.192,3.192,0,0,1,1.318.6V9.666A9.676,9.676,0,0,0,40.666,0Z" transform="translate(-31)" fill="#2d3291"/>
      </g>
    </g>
  </g>
</svg>
