<svg id="phone-call" xmlns="http://www.w3.org/2000/svg" width="36.603" height="36.603" viewBox="0 0 36.603 36.603">
  <g id="Group_11370" data-name="Group 11370">
    <path id="Path_27330" data-name="Path 27330" d="M33.713,24.1a20.893,20.893,0,0,1-6.567-1.046,2.814,2.814,0,0,0-2.857.6L20.134,26.8A23.211,23.211,0,0,1,9.8,16.469l3.053-4.057a2.917,2.917,0,0,0,.715-2.948,20.95,20.95,0,0,1-1.05-6.575A2.893,2.893,0,0,0,9.632,0H2.89A2.893,2.893,0,0,0,0,2.89,33.753,33.753,0,0,0,33.713,36.6a2.893,2.893,0,0,0,2.89-2.89V26.99A2.893,2.893,0,0,0,33.713,24.1Zm.963,9.613a.965.965,0,0,1-.963.963A31.823,31.823,0,0,1,1.926,2.89a.965.965,0,0,1,.963-.963H9.632a.965.965,0,0,1,.963.963,22.87,22.87,0,0,0,1.14,7.166,1.066,1.066,0,0,1-.331,1.1L7.9,15.8a.963.963,0,0,0-.089,1.017A25.276,25.276,0,0,0,19.789,28.793a.959.959,0,0,0,1.019-.089l4.743-3.595a.966.966,0,0,1,.981-.229,22.855,22.855,0,0,0,7.182,1.146.965.965,0,0,1,.963.963v6.723Z" fill="#2c2e93"/>
  </g>
</svg>
