<svg xmlns="http://www.w3.org/2000/svg" 
  width="27.526" 
  height="27.527"
  viewBox="0 0 17.001 17.044" 
 >
 <path id="Path_28021" data-name="Path 28021" d="M138.169,8.172a1.415,1.415,0,0,1,1.638.258l.574-.574a4.042,4.042,0,0,0,5.328-4.464.368.368,0,0,0-.624-.2l-.852.852a1.777,1.777,0,0,1-2.513-2.513l.852-.852a.368.368,0,0,0-.2-.624,4.041,4.041,0,0,0-4.44,5.391l-1.244,1.244Z" transform="translate(-128.761 -0.001)" />
 <path id="Path_28022" data-name="Path 28022" d="M7.513,155.387l-1.476-1.476L.876,159.072a1.719,1.719,0,1,0,2.43,2.43l4.449-4.449A1.415,1.415,0,0,1,7.513,155.387Z" transform="translate(-0.373 -144.962)" />
 <path id="Path_28023" data-name="Path 28023" d="M11.05,25.867a.541.541,0,0,0-.765,0l-.308.308L4.489,20.687l.257-.257a.541.541,0,0,0-.062-.818L2.445,17.963a.541.541,0,0,0-.7.053l-.951.951a.541.541,0,0,0-.053.7l1.649,2.239a.541.541,0,0,0,.818.062l.257-.257L8.95,27.2l-.33.33a.541.541,0,0,0,0,.765l5.063,5.063a1.718,1.718,0,1,0,2.43-2.43Z" transform="translate(-0.618 -16.82)"/>
</svg>
