<svg xmlns="http://www.w3.org/2000/svg" width="16.061" height="18.273" viewBox="0 0 16.061 18.273">
  <g id="user_2_" data-name="user (2)" transform="translate(0 0)">
    <g id="Group_11546" data-name="Group 11546" transform="translate(3.212 0)">
      <g id="Group_11545" data-name="Group 11545">
        <path id="Path_27878" data-name="Path 27878" d="M125.818,0a4.818,4.818,0,1,0,4.818,4.818A4.824,4.824,0,0,0,125.818,0Z" transform="translate(-121)" fill="#2d3291"/>
      </g>
    </g>
    <g id="Group_11548" data-name="Group 11548" transform="translate(0 10.707)">
      <g id="Group_11547" data-name="Group 11547">
        <path id="Path_27879" data-name="Path 27879" d="M45.025,302.077A6.869,6.869,0,0,0,40.1,300H37.96a6.869,6.869,0,0,0-4.924,2.077A7.022,7.022,0,0,0,31,307.031a.535.535,0,0,0,.535.535h14.99a.535.535,0,0,0,.535-.535A7.022,7.022,0,0,0,45.025,302.077Z" transform="translate(-31 -300)" fill="#2d3291"/>
      </g>
    </g>
  </g>
</svg>
