<svg xmlns="http://www.w3.org/2000/svg" xmlns:xlink="http://www.w3.org/1999/xlink" width="44" height="30" viewBox="0 0 44 30"><defs><clipPath id="a"><rect width="44" height="30" rx="5" transform="translate(963 448)" fill="#e3e3e3"/></clipPath></defs><g transform="translate(-963 -448)" clip-path="url(#a)"><rect width="44" height="30" rx="5" transform="translate(963 448)" fill="#f5f5f5"/><g transform="translate(965.482 442.056)"><path d="M16.133,26.331l1.881-10.582h2.939L19.131,26.331Z" transform="translate(-2.553 -0.066)" fill="#3c58bf"/><path d="M16.133,26.331l2.41-10.582h2.41L19.131,26.331Z" transform="translate(-2.553 -0.066)" fill="#293688"/><path d="M30.645,15.8a7.456,7.456,0,0,0-2.7-.47c-2.939,0-5.056,1.47-5.056,3.586,0,1.587,1.47,2.41,2.645,2.939s1.528.882,1.528,1.352c0,.705-.941,1.058-1.764,1.058a6.39,6.39,0,0,1-2.822-.588l-.412-.176-.412,2.41A9.532,9.532,0,0,0,25,26.5c3.116,0,5.173-1.47,5.173-3.7,0-1.235-.764-2.175-2.528-2.939-1.058-.529-1.7-.823-1.7-1.352,0-.47.529-.941,1.7-.941a5.392,5.392,0,0,1,2.234.412l.294.118.47-2.293Z" transform="translate(-3.427)" fill="#3c58bf"/><path d="M30.645,15.8a7.456,7.456,0,0,0-2.7-.47c-2.939,0-4.527,1.47-4.527,3.586a3.073,3.073,0,0,0,2.116,2.939c1.176.529,1.528.882,1.528,1.352,0,.705-.941,1.058-1.764,1.058a6.39,6.39,0,0,1-2.822-.588l-.412-.176-.412,2.41A9.532,9.532,0,0,0,25,26.5c3.116,0,5.173-1.47,5.173-3.7,0-1.235-.764-2.175-2.528-2.939-1.058-.529-1.7-.823-1.7-1.352,0-.47.529-.941,1.7-.941a5.392,5.392,0,0,1,2.234.412l.294.118.47-2.293Z" transform="translate(-3.427)" fill="#293688"/><path d="M37.226,15.749c-.705,0-1.235.059-1.528.764l-4.409,9.818h3.175l.588-1.764h3.762l.353,1.764h2.822L39.519,15.749ZM35.874,22.8c.176-.529,1.176-3.116,1.176-3.116s.235-.647.412-1.058l.176,1s.588,2.645.705,3.233H35.874Z" transform="translate(-4.952 -0.066)" fill="#3c58bf"/><path d="M37.932,15.749c-.705,0-1.235.059-1.528.764l-5.115,9.818h3.175l.588-1.764h3.762l.353,1.764h2.822L39.519,15.749ZM35.874,22.8c.235-.588,1.176-3.116,1.176-3.116s.235-.647.412-1.058l.176,1s.588,2.645.705,3.233H35.874Z" transform="translate(-4.952 -0.066)" fill="#293688"/><path d="M8.879,23.167l-.294-1.528A8.522,8.522,0,0,0,4.47,16.995L7.115,26.4H10.29l4.762-10.582H11.877Z" transform="translate(-0.707 -0.077)" fill="#3c58bf"/><path d="M8.879,23.167l-.294-1.528A8.522,8.522,0,0,0,4.47,16.995L7.115,26.4H10.29l4.762-10.582H12.465Z" transform="translate(-0.707 -0.077)" fill="#293688"/><path d="M0,15.749l.529.118c3.762.882,6.349,3.116,7.348,5.761l-1.058-5c-.176-.705-.705-.882-1.352-.882Z" transform="translate(0 -0.066)" fill="#ffbc00"/><path d="M0,15.749H0c3.762.882,6.878,3.175,7.878,5.82l-1-4.174a1.435,1.435,0,0,0-1.411-1.117Z" transform="translate(0 -0.066)" fill="#f7981d"/><path d="M0,15.749H0c3.762.882,6.878,3.175,7.878,5.82l-.705-2.293a2.073,2.073,0,0,0-1.235-1.7Z" transform="translate(0 -0.066)" fill="#ed7c00"/><g transform="translate(3.821 16.859)"><path d="M11.829,23.025l-2-2L8.89,23.26l-.235-1.47A8.522,8.522,0,0,0,4.54,17.146l2.645,9.406H10.36Z" transform="translate(-4.54 -17.146)" fill="#051244"/><path d="M19.131,27.834,16.6,25.248l-.47,2.587Z" transform="translate(-6.375 -18.428)" fill="#051244"/><path d="M26.765,23.99h0c.235.235.353.412.294.647,0,.705-.941,1.058-1.764,1.058a6.39,6.39,0,0,1-2.822-.588l-.412-.176-.412,2.41A9.532,9.532,0,0,0,25,27.929a5.821,5.821,0,0,0,4.291-1.47Z" transform="translate(-7.248 -18.229)" fill="#051244"/><path d="M31.778,26.873h2.763l.588-1.764h3.762l.353,1.764h2.822l-1-4.291-3.527-3.41.176.941s.588,2.645.705,3.233H35.952c.235-.588,1.176-3.116,1.176-3.116s.235-.647.412-1.058" transform="translate(-8.851 -17.467)" fill="#051244"/></g></g></g></svg>